<?xml version="1.0" encoding="iso-8859-1"?>
<!-- Generator: Adobe Illustrator 19.2.1, SVG Export Plug-In . SVG Version: 6.00 Build 0)  -->
<svg version="1.1" id="Layer_1" xmlns="http://www.w3.org/2000/svg" xmlns:xlink="http://www.w3.org/1999/xlink" x="0px" y="0px"
	 viewBox="0 0 97.661 20.769" style="enable-background:new 0 0 97.661 20.769;" xml:space="preserve">
<g>
	<g>
		<path style="fill:#FFFFFF;" d="M12.256,0.626c0.044-0.002,0.065-0.003,0.109-0.006c0.002,0.055,0.003,0.082,0.005,0.137
			c-0.409,0.153-1.241,0.58-2.492,1.304C9.879,2.088,9.88,2.102,9.881,2.13C9.924,2.127,9.946,2.126,9.99,2.123
			c0.424-0.12,0.673-0.182,0.745-0.186c0.024,0.054,0.035,0.081,0.059,0.135C9.567,2.829,8.897,3.227,8.783,3.235
			c0.002,0.056,0.003,0.084,0.005,0.14C8.854,3.37,8.886,3.368,8.952,3.363c0.083-0.099,0.365-0.237,0.847-0.41
			C9.8,2.981,9.8,2.995,9.801,3.023C9.758,3.095,8.959,3.62,7.485,4.654c-1.108,0.778-1.758,1.354-1.94,1.644
			c0.001,0.028,0.001,0.043,0.002,0.071C5.565,6.487,5.66,6.594,5.832,6.69C6.875,6.31,7.64,6.104,8.126,6.06
			c0.15-0.013,0.225-0.02,0.375-0.033C8.805,6,9.04,6.023,9.207,6.095c0.062-0.046,0.132-0.073,0.209-0.08
			c0.087-0.008,0.131-0.011,0.218-0.019c0.008,0.226,0.279,0.315,0.815,0.268c0.024,0.053,0.035,0.08,0.059,0.134
			c-0.067,0.052-0.12,0.08-0.161,0.084c0.003,0.092,0.207,0.257,0.611,0.491c0.05,0.186,0.075,0.279,0.125,0.465
			c0.006,0.19,0.01,0.285,0.016,0.474c-0.118,0.686-0.646,1.602-1.581,2.774c-0.072,0.008-0.738,0.768-1.863,2.308
			c-1.234,1.688-2.049,2.85-2.472,3.29c-0.001-0.029-0.001-0.043-0.002-0.071c0.061-0.124,0.092-0.186,0.154-0.31
			c-0.001-0.025-0.001-0.037-0.002-0.062c-0.355,0.418-0.532,0.627-0.887,1.049c0.002,0.057,0.003,0.086,0.005,0.143
			c0.209-0.272,0.366-0.416,0.47-0.432c-1.131,1.447-2.114,2.593-2.951,3.414c-0.044-0.022-0.067-0.032-0.111-0.054
			c-0.294,0.319-0.59,0.588-0.888,0.806c-0.319-0.151-0.484-0.267-0.496-0.344c0.754-0.986,1.131-1.504,1.128-1.571
			c-0.003-0.087-0.004-0.131-0.007-0.218c-0.019,0.003-0.029,0.005-0.048,0.008c-0.186,0.031-0.533,0.377-1.043,1.049
			c-0.072,0.013-0.11-0.03-0.113-0.128c1.369-1.777,3.111-3.928,5.228-6.375c1.297-1.66,2.346-3.031,3.147-4.145
			c0.035-0.253,0.053-0.379,0.088-0.632c-0.002-0.056-0.003-0.084-0.005-0.14C8.846,8.174,8.666,8,8.457,7.971
			c-0.621-0.087-1.88,0.51-3.187,1.311C5.248,9.284,5.237,9.285,5.215,9.288C5.213,9.231,5.212,9.202,5.21,9.145
			c0.15-0.017,0.307-0.15,0.472-0.4C5.681,8.717,5.68,8.703,5.679,8.674c-0.455,0.144-0.761,0.23-0.907,0.242
			c-0.097,0.008-0.193-0.128-0.28-0.4C4.239,8.544,3.742,8.235,3.61,7.837C3.257,6.773,4.46,4.803,6.319,3.492
			c0.102-0.203,0.905-0.905,2.314-1.699C10.006,1.018,11.333,0.675,12.256,0.626z M0.948,20.121c0.012,0.096,0.05,0.138,0.113,0.127
			c0.407-0.218,1.631-1.703,3.679-4.319c-0.043,0.006-0.065,0.01-0.109,0.016c-0.827,0.866-1.864,2.047-3.11,3.572
			C1.23,19.902,1.039,20.105,0.948,20.121z M1.798,18.172c0.002,0.058,0.003,0.087,0.005,0.145c0.106-0.017,0.159-0.026,0.265-0.043
			c1.009-1.132,1.718-1.976,2.127-2.553c-0.022,0.003-0.033,0.005-0.054,0.008c-0.05,0.007-0.813,0.799-2.288,2.434
			C1.83,18.167,1.819,18.169,1.798,18.172z M4.085,17.37c0.022-0.003,0.033-0.005,0.054-0.009c0.16-0.115,0.248-0.222,0.262-0.32
			c-0.022,0.003-0.033,0.005-0.054,0.008C4.188,17.165,4.1,17.272,4.085,17.37z M4.344,7.329c0.004,0.115,0.006,0.172,0.01,0.286
			c0.017,0.094,0.108,0.177,0.275,0.25C4.627,7.836,4.627,7.822,4.626,7.793c-0.111-0.191-0.169-0.35-0.173-0.475
			C4.409,7.322,4.387,7.325,4.344,7.329z M4.808,6.718c0.003,0.086,0.004,0.129,0.007,0.214c0.065-0.006,0.098-0.01,0.163-0.016
			C4.978,6.887,4.977,6.873,4.976,6.844C4.973,6.749,4.935,6.705,4.863,6.712C4.841,6.714,4.83,6.716,4.808,6.718z M4.827,7.28
			c0.001,0.029,0.001,0.043,0.002,0.071C5.044,7.658,5.284,7.797,5.547,7.77c0.019-0.002,0.029-0.003,0.048-0.005
			C5.593,7.711,5.592,7.685,5.59,7.631C5.236,7.382,5.018,7.261,4.936,7.269C4.892,7.273,4.871,7.275,4.827,7.28z M6.579,4.943
			c0.044-0.004,0.065-0.006,0.109-0.009c0.064-0.005,0.749-0.489,2.057-1.415C8.743,3.462,8.742,3.434,8.74,3.378
			C8.486,3.397,7.765,3.907,6.579,4.943z M9.489,8.209c0.002,0.056,0.003,0.084,0.005,0.139C9.511,8.44,9.549,8.483,9.608,8.477
			C9.629,8.474,9.64,8.473,9.662,8.471C9.66,8.415,9.659,8.388,9.657,8.332C9.654,8.239,9.616,8.196,9.544,8.204
			C9.522,8.206,9.511,8.207,9.489,8.209z M9.627,7.436c0.001,0.028,0.001,0.042,0.002,0.07c0.082-0.008,0.323,0.176,0.722,0.548
			c0.019-0.002,0.029-0.003,0.048-0.005c-0.002-0.055-0.003-0.083-0.005-0.139c-0.089-0.217-0.327-0.377-0.713-0.48
			C9.66,7.433,9.649,7.434,9.627,7.436z M9.832,7.007c-0.02,0.058-0.03,0.086-0.05,0.144c0.086-0.008,0.323,0.13,0.711,0.412
			c-0.001-0.028-0.001-0.042-0.002-0.069c-0.012-0.363-0.216-0.527-0.611-0.491C9.86,7.005,9.851,7.006,9.832,7.007z M10.03,8.225
			c0.002,0.056,0.003,0.083,0.005,0.139c0.017,0.085,0.054,0.125,0.113,0.119c-0.002-0.052-0.003-0.078-0.004-0.13
			C10.14,8.261,10.102,8.218,10.03,8.225z"/>
		<path style="fill:#FFFFFF;" d="M17.194,3.748c0.001,0.031,0.002,0.047,0.003,0.079C17.073,4.245,17,4.455,16.977,4.457
			c-0.012,0.001-0.018,0.001-0.029,0.002c-0.029-0.015-0.043-0.023-0.072-0.038c-0.267,0.649-0.4,1.016-0.397,1.098
			c0.051-0.084,0.077-0.126,0.128-0.211c0.012-0.001,0.018-0.001,0.029-0.002c0,0.014,0.001,0.021,0.001,0.036
			c-0.094,0.354-0.14,0.532-0.234,0.887c0.132-0.01,0.269-0.242,0.411-0.692c0.065-0.088,0.098-0.132,0.163-0.22
			c0.026-0.002,0.039-0.003,0.064-0.005C16.6,6.576,16.38,7.213,15.94,8.495c0.001,0.017,0.001,0.026,0.001,0.043
			c0.014-0.001,0.021-0.002,0.035-0.003c0.085-0.268,0.25-0.641,0.496-1.118c0.001,0.032,0.002,0.047,0.003,0.079
			c-0.311,0.746-0.587,1.503-0.827,2.27c-0.454,1.155-0.827,2.305-1.204,3.256c-0.302,0.76-0.765,1.476-1.237,2.082
			c-0.273,0.115-0.504,0.274-0.693,0.477c-0.012,0.002-0.017,0.002-0.029,0.004c-0.001-0.035-0.002-0.053-0.003-0.088
			c0.089-0.012,0.133-0.06,0.13-0.143c0-0.015-0.001-0.022-0.001-0.037c-0.095,0.028-0.143,0.041-0.238,0.069
			c-0.501-0.03-0.885-0.175-1.151-0.437c-0.144-0.228-0.262-0.711-0.353-1.449c0.022-0.057,0.032-0.101,0.031-0.13
			s-0.028-0.078-0.039-0.122c-0.129-0.516,0.086-1.467,0.325-2.38c0.037-0.524,0.295-1.519,0.774-2.967
			c0.332-0.858,0.498-1.285,0.831-2.134c0.042-0.003,0.063-0.005,0.105-0.009c-0.015-0.034-0.023-0.051-0.038-0.085
			c0.133-0.216,0.258-0.519,0.374-0.909c0.026-0.002,0.039-0.003,0.064-0.005c0.001,0.032,0.002,0.048,0.003,0.08
			c0.088-0.046,0.131-0.117,0.128-0.214c0.039-0.003,0.106,0.019,0.201,0.066c-0.764,1.921-1.144,2.947-1.141,3.035
			c0.001,0.018,0.001,0.026,0.001,0.044c0.014-0.001,0.021-0.002,0.035-0.003c0.574-1.51,0.979-2.504,1.212-3.003
			c0.012-0.001,0.018-0.001,0.029-0.002c0.001,0.035,0.002,0.052,0.003,0.087c-0.024,0.051-0.036,0.077-0.06,0.129
			c0.001,0.017,0.001,0.026,0.001,0.044c0.002,0.063,0.016,0.118,0.041,0.165c-0.583,1.607-0.889,2.508-0.918,2.677
			c0.012-0.001,0.018-0.002,0.029-0.003c0.165-0.318,0.248-0.476,0.413-0.793c0.001,0.032,0.002,0.048,0.003,0.08
			c-1.078,2.679-1.83,5-1.642,6.091c0.072,0.418,0.401,0.712,0.661,0.678c0.276-0.035,0.747-0.409,1.206-1.077
			c0.45-0.655,0.757-1.471,0.962-2.25c0.658-1.823,1.088-3.058,1.288-3.734c0.054-0.144,0.096-0.217,0.127-0.22
			c0.001,0.035,0.002,0.052,0.003,0.086c0.014-0.001,0.021-0.002,0.035-0.003c-0.001-0.017-0.001-0.026-0.001-0.043
			c-0.025-0.046-0.039-0.1-0.041-0.163c0.118-0.443,0.398-0.868,0.564-1.196c0.28-0.555,0.4-1.062,0.533-1.071
			C17.08,3.917,17.155,3.751,17.194,3.748z M11.295,13.283c0.001,0.033,0.002,0.049,0.003,0.081
			c0.018,0.117,0.027,0.175,0.045,0.291c0.014-0.002,0.021-0.003,0.035-0.004c-0.003-0.086-0.004-0.129-0.007-0.214
			c-0.016-0.063-0.024-0.095-0.04-0.158C11.316,13.281,11.309,13.282,11.295,13.283z M11.402,14.376
			c0,0.015,0.001,0.022,0.001,0.037c0.045,0.063,0.068,0.117,0.07,0.161c0.042-0.006,0.063-0.008,0.105-0.014
			c-0.051-0.122-0.098-0.185-0.141-0.189C11.423,14.373,11.416,14.374,11.402,14.376z M11.414,14.753
			c0.001,0.018,0.001,0.027,0.001,0.044c0.315,0.185,0.542,0.268,0.682,0.249c0.026-0.003,0.038-0.005,0.064-0.009
			c-0.001-0.018-0.001-0.026-0.001-0.044c-0.377-0.176-0.614-0.259-0.711-0.246C11.435,14.75,11.428,14.751,11.414,14.753z
			 M11.421,13.906c0.001,0.033,0.002,0.049,0.003,0.081c0.074,0.223,0.168,0.366,0.284,0.43c-0.001-0.018-0.001-0.027-0.001-0.044
			C11.609,14.153,11.514,13.998,11.421,13.906z M11.609,11.459c-0.082,0.232-0.121,0.419-0.116,0.562
			c0.058-0.007,0.119-0.182,0.182-0.525C11.648,11.481,11.635,11.473,11.609,11.459z M11.795,14.065
			c0.001,0.018,0.001,0.027,0.001,0.044c0.071,0.134,0.151,0.195,0.24,0.183C11.979,14.177,11.898,14.101,11.795,14.065z
			 M11.945,14.512c0.001,0.018,0.001,0.027,0.001,0.044c0.185,0.03,0.308,0.041,0.37,0.033c0.065-0.023,0.097-0.035,0.162-0.058
			c-0.001-0.018-0.001-0.026-0.001-0.044c-0.134,0-0.2,0-0.334-0.001C12.064,14.496,12.024,14.501,11.945,14.512z M12.303,15.226
			c-0.023,0.003-0.035-0.008-0.036-0.032c-0.042,0.03-0.075,0.047-0.098,0.05c0.001,0.018,0.001,0.026,0.001,0.044
			c0.068-0.009,0.101-0.014,0.169-0.023c0.284-0.038,0.492-0.18,0.624-0.423c-0.014,0.002-0.021,0.003-0.035,0.005
			C12.593,15.088,12.384,15.214,12.303,15.226z M12.153,8.813c0.031-0.003,0.114-0.223,0.248-0.658
			c-0.012,0.001-0.018,0.002-0.029,0.003C12.22,8.418,12.147,8.637,12.153,8.813z M12.352,8.624c-0.1,0.383-0.15,0.587-0.149,0.612
			c0.028-0.003,0.042-0.004,0.07-0.007c0.08-0.283,0.119-0.471,0.116-0.564c-0.001-0.018-0.001-0.026-0.001-0.044
			C12.373,8.622,12.366,8.623,12.352,8.624z M12.384,14.668c0.001,0.018,0.001,0.026,0.001,0.044
			c0.054-0.007,0.08-0.011,0.134-0.018c-0.001-0.018-0.001-0.026-0.001-0.044C12.464,14.658,12.437,14.661,12.384,14.668z
			 M12.395,7.994c0.001,0.029-0.007,0.072-0.025,0.128c0.026-0.002,0.039-0.004,0.064-0.006c-0.002-0.05-0.003-0.075-0.004-0.125
			C12.416,7.992,12.409,7.993,12.395,7.994z M12.595,13.962c0.028-0.004,0.042-0.005,0.07-0.009
			c0.039-0.037,0.058-0.056,0.096-0.093c0.001,0.032,0.002,0.048,0.003,0.081c0.288-0.037,0.589-0.384,0.903-1.037
			c0.012-0.069,0.018-0.103,0.029-0.172c-0.557,0.74-0.925,1.127-1.104,1.15C12.593,13.914,12.593,13.93,12.595,13.962z
			 M12.427,7.903c0.001,0.018,0.001,0.026,0.001,0.044c0.026-0.002,0.039-0.004,0.064-0.006c-0.002-0.05-0.003-0.075-0.004-0.125
			C12.446,7.825,12.426,7.854,12.427,7.903z M12.639,14.251c0.001,0.018,0.001,0.026,0.001,0.044
			c0.04-0.005,0.059-0.008,0.099-0.013c0.072-0.063,0.128-0.097,0.166-0.102c-0.001-0.018-0.001-0.026-0.001-0.044
			c-0.014,0.002-0.021,0.003-0.035,0.004C12.806,14.203,12.729,14.24,12.639,14.251z M12.764,7.996
			c-0.038,0.155-0.056,0.243-0.056,0.263c0.039-0.004,0.07-0.078,0.092-0.222C12.8,8.019,12.8,8.01,12.799,7.993
			C12.785,7.994,12.778,7.995,12.764,7.996z M13.26,14.766c-0.066,0.073-0.098,0.11-0.164,0.183c0.028-0.004,0.042-0.006,0.07-0.009
			c0.035-0.005,0.078-0.064,0.129-0.179C13.281,14.764,13.274,14.764,13.26,14.766z M13.859,4.464
			c0.002,0.052,0.003,0.079,0.004,0.131c-0.028,0.002-0.042,0.003-0.07,0.005c-0.001-0.017-0.001-0.026-0.001-0.044
			C13.798,4.498,13.82,4.467,13.859,4.464z M14.17,11.842c0.027-0.003,0.08-0.109,0.159-0.317c-0.001-0.032-0.002-0.048-0.003-0.08
			C14.257,11.453,14.204,11.585,14.17,11.842z M14.339,11.823c0.058-0.007,0.201-0.415,0.428-1.22
			c-0.001-0.017-0.001-0.026-0.001-0.043C14.728,10.583,14.585,11.003,14.339,11.823z M14.855,10.26
			c0.001,0.017,0.001,0.026,0.001,0.043c0.047-0.005,0.069-0.034,0.067-0.087c-0.001-0.017-0.001-0.026-0.001-0.043
			C14.876,10.187,14.854,10.216,14.855,10.26z M15.035,9.66c-0.009,0.068-0.014,0.102-0.024,0.169
			c0.043-0.004,0.063-0.047,0.06-0.129c-0.001-0.017-0.001-0.026-0.001-0.043C15.056,9.658,15.049,9.659,15.035,9.66z M15.222,9.141
			c-0.061,0.165-0.091,0.265-0.09,0.299c0.001,0.017,0.001,0.026,0.001,0.043c0.012-0.001,0.018-0.002,0.029-0.003
			c-0.001-0.024,0.031-0.124,0.095-0.299c-0.001-0.017-0.001-0.026-0.001-0.043C15.243,9.139,15.236,9.14,15.222,9.141z
			 M15.373,8.714c0.002,0.053-0.028,0.152-0.09,0.298c0.001,0.017,0.001,0.026,0.001,0.043c0.014-0.001,0.021-0.002,0.035-0.003
			c-0.004-0.111,0.028-0.169,0.094-0.176c-0.002-0.066-0.003-0.1-0.006-0.166C15.394,8.712,15.387,8.713,15.373,8.714z
			 M16.689,6.903c0.001,0.034,0.002,0.052,0.003,0.086c-0.028,0.108-0.059,0.163-0.094,0.166c-0.001-0.032-0.002-0.047-0.003-0.079
			C16.627,6.963,16.658,6.906,16.689,6.903z"/>
		<path style="fill:#FFFFFF;" d="M21.997,4.171c0.001,0.017,0.001,0.025,0.001,0.042c0.028-0.018,0.041-0.027,0.069-0.046
			c0.07-0.004,0.105-0.006,0.176-0.01c-0.011,0.087-0.017,0.13-0.028,0.217c0.677,0.359,1.053,0.815,1.04,1.28
			c-0.026,0.872-0.289,1.525-0.44,1.761c-0.218,0.342-0.493,0.797-0.889,1.128c-0.015-0.032-0.023-0.048-0.038-0.081
			c0.365-0.426,0.582-0.725,0.65-0.901c-0.016,0.001-0.025,0.002-0.041,0.003c-0.694,0.878-1.21,1.408-1.548,1.573
			c-1.891,1.421-3.006,2.189-3.349,2.226c-0.086,0.009-0.445,0.999-1.078,3.006c0.002,0.057-0.02,0.089-0.067,0.095
			c-0.001-0.034-0.002-0.052-0.003-0.086c0.076-0.255,0.114-0.382,0.19-0.636c-0.001-0.017-0.001-0.026-0.001-0.043
			c-0.014,0.002-0.021,0.003-0.035,0.004c-0.385,1.108-0.732,2.064-1.041,2.862c0.002,0.072-0.162,0.534-0.493,1.393
			c-0.028,0.004-0.042,0.006-0.07,0.01c-0.001-0.035-0.002-0.052-0.003-0.087c0.154-0.426,0.229-0.7,0.224-0.826
			c-0.07,0.01-0.107-0.031-0.11-0.123c0.043-0.103,0.064-0.193,0.061-0.271c-0.001-0.017-0.001-0.026-0.001-0.043
			c-0.071,0.083-0.181,0.362-0.329,0.84c-0.093,0.028-0.205,0.236-0.337,0.626c-0.014,0.002-0.021,0.003-0.035,0.005
			c-0.001-0.029-0.013-0.042-0.036-0.038c0.378-0.972,0.703-1.888,0.975-2.752c-0.001-0.035-0.002-0.052-0.003-0.087
			c-0.098,0.119-0.26,0.569-0.488,1.353c-0.014,0.002-0.021,0.003-0.035,0.005c-0.047,0.007-0.071-0.019-0.073-0.077
			c0.022-0.056,0.031-0.118,0.029-0.186c-0.028,0.004-0.042,0.006-0.07,0.01c0.029-0.296,0.127-0.588,0.293-0.877
			c0.001,0.035,0.002,0.052,0.003,0.087c-0.111,0.301-0.164,0.515-0.16,0.64c0.309-0.703,0.459-1.164,0.452-1.391
			c-0.028,0.004-0.042,0.005-0.07,0.009c0.005,0.135-0.039,0.245-0.13,0.329c-0.001-0.035-0.002-0.052-0.003-0.087
			c0.506-1.482,0.759-2.217,1.266-3.676c-0.001-0.017-0.001-0.026-0.001-0.043c-0.023,0.003-0.036-0.011-0.036-0.039
			c-0.092,0.068-0.232,0.126-0.422,0.176c-0.001-0.035-0.002-0.052-0.003-0.086c0.517-0.191,0.77-0.464,0.758-0.823
			c0.347-0.961,0.851-2.247,1.513-3.837c-0.001-0.017-0.001-0.026-0.001-0.043c-0.047,0.004-0.557,0.415-1.529,1.257
			c-0.014,0.001-0.021,0.002-0.035,0.003c0.047-0.114,0.507-0.565,1.38-1.331c0.013-0.038,0.019-0.057,0.032-0.095
			c-0.014,0.001-0.021,0.002-0.035,0.003c-0.639,0.529-1.216,1.044-1.73,1.541c-0.014,0.001-0.021,0.002-0.035,0.003
			c-0.015-0.033-0.023-0.05-0.038-0.083c0.072-0.194,0.474-0.61,1.207-1.236c0.046-0.032,0.08-0.049,0.104-0.051
			c-0.001-0.017-0.001-0.026-0.001-0.043c-0.014,0.001-0.021,0.002-0.035,0.003c-0.221,0.065-0.742,0.495-1.562,1.309
			c0.001,0.043-0.043,0.105-0.134,0.185c-0.028,0.003-0.042,0.004-0.07,0.006c-0.001-0.035-0.002-0.052-0.003-0.086
			C17.952,5.528,20.039,4.284,21.997,4.171z M15.385,14.513c-0.012,0.071-0.018,0.107-0.029,0.178
			c0.039-0.005,0.074-0.068,0.105-0.188C15.43,14.507,15.415,14.509,15.385,14.513z M15.564,15.506
			c0.001,0.035,0.002,0.052,0.003,0.087c0.014-0.002,0.021-0.003,0.035-0.005c0.011-0.089,0.017-0.133,0.028-0.221
			C15.583,15.372,15.562,15.419,15.564,15.506z M16.638,13.613c0.001,0.017,0.001,0.026,0.001,0.043
			c0.051-0.006,0.075-0.04,0.073-0.102c-0.001-0.017-0.001-0.026-0.001-0.043C16.661,13.526,16.636,13.56,16.638,13.613z
			 M16.708,13.424c0.001,0.017,0.001,0.026,0.001,0.043c0.047-0.006,0.069-0.037,0.067-0.094c-0.001-0.017-0.001-0.026-0.001-0.043
			C16.729,13.345,16.706,13.377,16.708,13.424z M17.628,11.139c0.001,0.034,0.002,0.051,0.003,0.086
			c0.084-0.026,0.125-0.039,0.209-0.065c-0.002-0.057-0.038-0.082-0.108-0.074C17.686,11.118,17.651,11.136,17.628,11.139z
			 M17.581,6.574c0.042-0.003,0.063-0.005,0.105-0.008c-0.001-0.034-0.002-0.051-0.003-0.085c-0.014,0.001-0.021,0.002-0.035,0.003
			C17.602,6.496,17.579,6.526,17.581,6.574z M17.875,9.941c0.002,0.057-0.022,0.088-0.073,0.093
			c0.002,0.051,0.003,0.077,0.004,0.128c0.016-0.002,0.025-0.002,0.041-0.004c-0.001-0.043,0.02-0.102,0.064-0.178
			c-0.001-0.017-0.001-0.026-0.001-0.043C17.896,9.939,17.889,9.94,17.875,9.941z M18.052,9.967
			c0.023-0.002,0.036,0.011,0.036,0.039c0.187-0.018,0.326-0.117,0.418-0.297c0.261-0.025,0.924-0.483,1.989-1.346
			c0.72-0.567,1.208-1.226,1.464-1.982c-0.004-0.12-0.006-0.179-0.01-0.299c-0.012-0.366-0.375-0.671-0.843-0.662
			c-0.723,0.014-1.312,0.326-1.407,0.526c-0.068,0.066-0.266,0.522-0.593,1.375C18.398,8.912,18.046,9.805,18.052,9.967z
			 M18.131,9.175c0.002,0.047-0.02,0.109-0.064,0.184c0.001,0.017,0.001,0.026,0.001,0.043c0.035-0.003,0.068-0.064,0.099-0.18
			c-0.001-0.02-0.001-0.03-0.002-0.05C18.152,9.173,18.145,9.173,18.131,9.175z M18.156,7.832c0.002,0.051,0.003,0.077,0.004,0.128
			c0.084-0.055,0.183-0.308,0.297-0.758C18.438,7.204,18.338,7.413,18.156,7.832z M18.228,8.909
			c0.001,0.028-0.009,0.072-0.031,0.131c0.001,0.017,0.001,0.026,0.001,0.043c0.014-0.001,0.021-0.002,0.035-0.003
			c-0.001-0.028,0.011-0.072,0.037-0.132c-0.001-0.017-0.001-0.026-0.001-0.043C18.252,8.907,18.244,8.908,18.228,8.909z
			 M18.287,10.678c0.001,0.017,0.001,0.026,0.001,0.043c0.03-0.003,0.046-0.005,0.076-0.008c0.615-0.309,1.657-1.109,3.128-2.35
			c0.097-0.125,0.145-0.188,0.242-0.313c-0.028,0.002-0.042,0.003-0.07,0.006c-1.071,0.939-2.032,1.716-2.883,2.317
			C18.781,10.401,18.617,10.502,18.287,10.678z M18.301,8.817c0.001,0.017,0.001,0.026,0.001,0.043
			c0.014-0.001,0.021-0.002,0.035-0.003c-0.002-0.052,0.04-0.201,0.126-0.445C18.35,8.544,18.296,8.68,18.301,8.817z M18.46,8.326
			c0.001,0.017,0.001,0.026,0.001,0.043c0.014-0.001,0.021-0.002,0.035-0.003c0.156-0.36,0.233-0.581,0.23-0.666
			C18.687,7.702,18.599,7.911,18.46,8.326z M20.885,5.091c0.001,0.017,0.001,0.025,0.001,0.042c0.042-0.003,0.063-0.004,0.105-0.007
			c0.046-0.031,0.081-0.047,0.104-0.049c-0.001-0.017-0.001-0.025-0.001-0.042c-0.014,0.001-0.021,0.001-0.035,0.002
			C20.989,5.059,20.954,5.07,20.885,5.091z M21.483,4.927c0.001,0.017,0.001,0.025,0.001,0.042c0.115-0.007,0.172-0.011,0.287-0.018
			c-0.001-0.033-0.002-0.05-0.003-0.083c-0.042,0.003-0.063,0.004-0.105,0.007C21.591,4.895,21.555,4.906,21.483,4.927z
			 M21.673,5.166c0.002,0.07,0.124,0.134,0.364,0.192c-0.001-0.017-0.001-0.025-0.001-0.042c-0.003-0.093-0.089-0.159-0.259-0.199
			C21.731,5.149,21.696,5.165,21.673,5.166z M22.523,4.988c0.001,0.033,0.002,0.05,0.003,0.083c0.001,0.042,0.038,0.081,0.109,0.118
			c-0.002-0.05-0.002-0.075-0.004-0.125c-0.002-0.055-0.026-0.082-0.073-0.079C22.544,4.986,22.537,4.987,22.523,4.988z"/>
		<path style="fill:#FFFFFF;" d="M27.253,3.875c0.044,0.029,0.095,0.043,0.154,0.04c0.086-0.004,0.15-0.023,0.192-0.056
			c0.142,0.025,0.259,0.035,0.353,0.031c0.014-0.001,0.021-0.001,0.035-0.002c0.093-0.023,0.14-0.035,0.233-0.058
			c0.044,0.029,0.095,0.043,0.154,0.04c0.059-0.003,0.109-0.021,0.151-0.054c0.146,0.025,0.25,0.036,0.312,0.033
			c0.107-0.023,0.161-0.035,0.268-0.059c0.031,0.017,0.047,0.026,0.078,0.043c0.055-0.002,0.081-0.019,0.08-0.05
			c0.224,0.021,0.351,0.031,0.382,0.03c0.246-0.011,1.277-0.043,3.095-0.085c0.001,0.018,0.001,0.027,0.002,0.046
			c0.03-0.019,0.045-0.029,0.075-0.048c0.228,0.022,0.369,0.032,0.423,0.03c0.001,0.034,0.002,0.051,0.003,0.084
			c-0.014,0.001-0.021,0.001-0.035,0.001c-0.027,0.001-0.041-0.011-0.042-0.037c-0.03,0.017-0.045,0.025-0.075,0.042
			c-0.027,0.001-0.041-0.011-0.042-0.037c-0.03,0.017-0.045,0.025-0.075,0.042c-0.031-0.014-0.046-0.022-0.077-0.036
			c-0.179,0.024-0.268,0.056-0.267,0.095c0.025,0.056,0.038,0.098,0.04,0.129c0.155-0.006,0.232-0.009,0.387-0.015
			c0.001,0.043,0.031,0.098,0.088,0.166c-0.143,0.049-0.27,0.126-0.38,0.23c-0.02,0.001-0.098-0.011-0.236-0.036
			c-0.05,0.033-0.088,0.049-0.116,0.051c-0.023,0.001-0.036-0.014-0.037-0.044c-0.107,0.023-0.161,0.034-0.268,0.057
			c-0.232,0.01-0.348,0.015-0.58,0.025c-0.05,0.011-0.075,0.041-0.073,0.089c0.103,0.026,0.193,0.037,0.271,0.034
			c0.001,0.016,0.001,0.024,0.001,0.039c0.001,0.044-0.036,0.089-0.113,0.136c-0.124,0.006-0.186,0.009-0.31,0.014
			c-0.105,0.005-0.246,0.027-0.42,0.066c-0.044-0.029-0.135-0.057-0.195-0.037c-0.042,0.014-0.088,0.05-0.116,0.052
			c-0.001-0.018-0.001-0.028-0.002-0.046c-0.042,0.033-0.092,0.051-0.151,0.053c0.001,0.034,0.002,0.051,0.003,0.086
			c0.199-0.01,0.299-0.015,0.498-0.024c0.001,0.034,0.002,0.051,0.003,0.086c-0.936,0.072-1.667,0.154-2.192,0.244
			c-0.027,0.001-0.067-0.012-0.119-0.04c-1.336,0.161-2.287,0.263-2.852,0.296c-0.133,0.008-0.303,0.286-0.512,0.837
			c-0.03,0.002-0.046,0.003-0.076,0.005c-0.001-0.016-0.001-0.025-0.001-0.041c0.047-0.103,0.07-0.18,0.069-0.23
			c-0.082,0.005-0.384,0.62-0.905,1.865c0.018,0.037,0.026,0.056,0.044,0.093c0.05-0.036,0.088-0.055,0.115-0.057
			c0.002,0.068,0.904,0.073,2.704,0.022c0.001,0.04,0.131,0.06,0.389,0.059c0.002,0.058-0.022,0.089-0.073,0.093
			c-0.077,0.006-0.116,0.008-0.193,0.014c0.001,0.038,0.002,0.057,0.003,0.094c0.184,0.013,0.286,0.019,0.306,0.018
			c0.001,0.035,0.002,0.052,0.003,0.087c-0.199,0.015-0.298,0.022-0.497,0.037c-0.077,0.025-0.115,0.037-0.191,0.062
			c0.001,0.035,0.002,0.053,0.003,0.088c0.179-0.014,0.271,0.038,0.275,0.155c0.002,0.063,0.068,0.089,0.196,0.079
			c0.001,0.035,0.002,0.052,0.003,0.087c-0.348,0.117-0.668,0.188-0.961,0.211c-0.276,0.022-0.414,0.033-0.69,0.056
			c-0.093,0.024-0.14,0.036-0.233,0.06c-0.044-0.024-0.109-0.032-0.194-0.025c-0.351,0.147-0.657,0.233-0.918,0.255
			c-0.061-0.014-0.092-0.021-0.154-0.035c-0.123,0.049-0.184,0.074-0.307,0.123c-0.052-0.028-0.091-0.04-0.119-0.038
			c-0.129,0.108-0.274,0.394-0.435,0.861c-0.548,1.379-0.819,2.158-0.814,2.315c0.078,0.011,0.117,0.017,0.194,0.028
			c0.171-0.018,0.256-0.027,0.427-0.046c0.199-0.021,0.378-0.024,0.539-0.009c0.12-0.045,0.298-0.08,0.536-0.105
			c0.033,0.016,0.05,0.024,0.083,0.039c0.042-0.036,0.092-0.058,0.15-0.064c0.092,0.01,0.138,0.015,0.23,0.024
			c0.027-0.003,0.04-0.02,0.039-0.052c0.757-0.023,1.135-0.035,1.892-0.057c0.001,0.035,0.002,0.053,0.003,0.088
			c-0.093,0.028-0.139,0.043-0.232,0.071c-0.002-0.063-0.028-0.092-0.079-0.087c0.005,0.158-0.389,0.289-1.183,0.395
			c0.001,0.019,0.001,0.029,0.002,0.048c0.061-0.006,0.091-0.01,0.152-0.016c0.032-0.023,0.048-0.034,0.08-0.056
			c0.126,0.019,0.189,0.042,0.19,0.069c0.032-0.02,0.048-0.03,0.08-0.049c0.014-0.001,0.021-0.002,0.035-0.004
			c0.027-0.003,0.041,0.009,0.042,0.037c0.03-0.02,0.045-0.029,0.075-0.049c0.246-0.009,0.369-0.014,0.615-0.023
			c0.027-0.003,0.066-0.02,0.116-0.053c0.048,0.022,0.164,0.04,0.348,0.052c0.104-0.042,0.195-0.067,0.273-0.075
			c0.001,0.035,0.002,0.053,0.003,0.088c-0.086,0.009-0.135,0.104-0.149,0.286c-0.281,0.029-0.42,0.058-0.419,0.085
			c-0.052-0.022-0.091-0.031-0.118-0.028c-0.28,0.048-0.419,0.092-0.418,0.133c0.005,0.149-0.109,0.237-0.343,0.262
			c-0.353,0.038-0.529,0.058-0.882,0.097c-0.027,0.003-0.041-0.011-0.042-0.043c-0.03,0.023-0.045,0.034-0.074,0.056
			c-0.03,0.003-0.046,0.005-0.076,0.008c-0.027,0.003-0.041-0.011-0.043-0.043c-0.03,0.023-0.045,0.034-0.074,0.056
			c-1.167,0.162-2.209,0.187-2.464,0.329c-0.085,0.047-0.346,0.762-0.745,1.932c-0.016,0.002-0.025,0.003-0.041,0.005
			c-0.015-0.035-0.023-0.052-0.038-0.086c0.327-0.978,0.516-1.474,0.566-1.499c-0.043-0.121-0.084-0.179-0.123-0.174
			c-0.014,0.002-0.021,0.002-0.035,0.004c0.004,0.107-0.08,0.301-0.25,0.583c-0.016,0.002-0.025,0.003-0.041,0.005
			c0.067-0.326,0.099-0.545,0.095-0.656c-0.027,0.003-0.04,0.021-0.039,0.054c-0.389-0.047-0.584-0.118-0.587-0.211
			c-0.002-0.073-0.004-0.109-0.006-0.182c0.031-0.06,0.046-0.09,0.077-0.15c-0.001-0.036-0.002-0.055-0.003-0.091
			c-0.157-0.015-0.236-0.052-0.238-0.113c0.052-0.189,0.396-0.32,0.49-0.428c0.077-0.088,0.484-1.554,1.381-3.768
			c0.944-2.329,1.501-3.521,1.499-3.576c-0.002-0.071-0.004-0.107-0.006-0.178c-0.032-0.053-0.048-0.079-0.081-0.133
			c-0.03,0.018-0.045,0.028-0.075,0.046c-0.016,0.001-0.025,0.002-0.041,0.003c-0.001-0.016-0.001-0.025-0.001-0.041
			c0.002-0.064,0.141-0.165,0.418-0.3c0.037-0.19,0.147-0.331,0.332-0.424c0.013-0.091,0.02-0.137,0.033-0.228
			c-0.078-0.012-0.117-0.018-0.195-0.03c-0.05,0.03-0.088,0.046-0.116,0.048c-0.015-0.035-0.023-0.052-0.038-0.087
			c0.226-0.103,0.34-0.154,0.566-0.257c0.143-0.039,0.246-0.061,0.309-0.064c0.059-0.003,0.11,0.01,0.154,0.04
			c0.509-0.062,0.764-0.092,1.273-0.152c0.031,0.015,0.046,0.022,0.077,0.037C26.999,3.938,27.192,3.9,27.253,3.875z M21.843,12.019
			c-0.14,0.382-0.208,0.605-0.206,0.665c0.047-0.005,0.07-0.008,0.117-0.013c0.113-0.353,0.169-0.572,0.166-0.66
			C21.889,12.014,21.873,12.016,21.843,12.019z M21.916,11.921c0.001,0.017,0.001,0.025,0.001,0.042
			c0.055-0.006,0.081-0.039,0.079-0.099c-0.001-0.017-0.001-0.025-0.001-0.042C21.94,11.837,21.914,11.87,21.916,11.921z
			 M22.666,13.491c0.001,0.036,0.002,0.054,0.003,0.09c0.03-0.003,0.046-0.005,0.076-0.009c0.094,0.009,0.141,0.013,0.235,0.022
			c0.127-0.056,0.19-0.109,0.188-0.16C22.968,13.457,22.867,13.469,22.666,13.491z M23.205,13.479
			c0.001,0.017,0.001,0.025,0.001,0.041c0.077-0.009,0.116-0.013,0.193-0.022c-0.001-0.017-0.001-0.025-0.001-0.041
			C23.321,13.467,23.282,13.471,23.205,13.479z M24.139,4.396c0.047-0.003,0.07-0.004,0.117-0.006
			c0.001,0.036,0.002,0.053,0.003,0.089c-0.047,0.003-0.07,0.004-0.117,0.007C24.141,4.449,24.14,4.431,24.139,4.396z M25.064,6.641
			c0.001,0.035,0.002,0.053,0.003,0.089c-0.021,0.061-0.032,0.107-0.031,0.139c-0.033,0.002-0.049,0.003-0.082,0.006
			c-0.001-0.019-0.001-0.029-0.002-0.048C24.988,6.706,25.025,6.644,25.064,6.641z M24.918,4.531
			c0.001,0.019,0.001,0.029,0.002,0.048c0.047-0.003,0.07-0.004,0.117-0.006c0.051-0.003,0.075-0.034,0.073-0.093
			c-0.031-0.017-0.047-0.026-0.078-0.044c-0.016,0.001-0.025,0.001-0.041,0.002C24.94,4.45,24.916,4.481,24.918,4.531z
			 M26.184,4.334c0.001,0.016,0.001,0.024,0.001,0.041c0.078,0.015,0.117,0.022,0.195,0.037c0.033-0.002,0.049-0.003,0.082-0.004
			c0.055-0.003,0.105-0.021,0.151-0.055c0.044,0.029,0.095,0.042,0.154,0.039c0.03-0.002,0.046-0.002,0.076-0.004
			C26.841,4.353,26.841,4.335,26.84,4.3c-0.051,0.003-0.077-0.012-0.078-0.043C26.607,4.296,26.414,4.322,26.184,4.334z
			 M26.674,5.154c0.001,0.016,0.001,0.024,0.001,0.041c0.124-0.007,0.186-0.01,0.31-0.017c-0.001-0.016-0.001-0.024-0.001-0.04
			C26.861,5.144,26.799,5.147,26.674,5.154z M26.882,4.338c0.047-0.002,0.07-0.004,0.117-0.006
			c-0.001-0.035-0.002-0.053-0.003-0.088c-0.016,0.001-0.025,0.001-0.041,0.002C26.905,4.258,26.88,4.289,26.882,4.338z
			 M27.017,4.865c0.001,0.019,0.001,0.028,0.002,0.047c0.061-0.003,0.091-0.005,0.152-0.008c-0.001-0.019-0.001-0.028-0.002-0.047
			C27.108,4.86,27.078,4.862,27.017,4.865z M27.072,4.241c-0.015,0.036-0.023,0.054-0.038,0.09c0.016-0.001,0.025-0.001,0.041-0.002
			c0.14-0.034,0.254-0.053,0.344-0.058c-0.001-0.019-0.001-0.028-0.002-0.047C27.279,4.231,27.21,4.234,27.072,4.241z M27.217,5.077
			c0.001,0.035,0.002,0.053,0.003,0.088c0.091-0.005,0.137-0.008,0.228-0.013c-0.002-0.058-0.028-0.086-0.079-0.083
			C27.309,5.072,27.278,5.073,27.217,5.077z M27.671,4.79c0.001,0.016,0.001,0.024,0.001,0.04c0.108-0.006,0.162-0.008,0.269-0.014
			c-0.001-0.016-0.001-0.024-0.001-0.04C27.833,4.781,27.779,4.784,27.671,4.79z M28.295,5.019c0.001,0.019,0.001,0.028,0.002,0.047
			c0.063-0.003,0.095-0.005,0.158-0.008c-0.001-0.019-0.001-0.028-0.002-0.047C28.39,5.014,28.358,5.015,28.295,5.019z
			 M29.219,4.931c0.001,0.022,0.041,0.062,0.121,0.12c0.17-0.043,0.255-0.065,0.425-0.108c0.102,0.017,0.154,0.043,0.155,0.079
			c0.097-0.031,0.211-0.05,0.344-0.057c-0.001-0.019-0.001-0.028-0.002-0.046c-0.108-0.011-0.162-0.016-0.271-0.026
			c-0.215,0.026-0.322,0.04-0.537,0.067C29.36,4.948,29.313,4.942,29.219,4.931z"/>
		<path style="fill:#FFFFFF;" d="M30.573,3.676c0.014-0.001,0.021-0.001,0.035-0.001c-0.013,0.032-0.02,0.048-0.033,0.081
			c0.002,0.066,0.003,0.099,0.006,0.165c0.306-0.075,0.458-0.162,0.455-0.263c0.087,0.012,0.131,0.019,0.218,0.031
			c0.358-0.04,0.69-0.066,0.995-0.078c0.014-0.001,0.021-0.001,0.035-0.001c0.469-0.017,1.037,0.254,1.705,0.805
			c0.137,0.24,0.228,0.458,0.274,0.654c0.005,0.157,0.008,0.236,0.013,0.393c-0.06,0.545-0.177,0.958-0.352,1.239
			c-0.098,0.109-0.325,0.449-0.682,1.026c-0.014,0.001-0.021,0.001-0.035,0.002c-0.001-0.031-0.002-0.047-0.003-0.078
			c0.04-0.065,0.06-0.097,0.1-0.162c-0.028,0.002-0.042,0.003-0.07,0.004c-0.809,0.842-1.739,1.52-2.789,2.03
			c-0.263,0.1-0.523,0.16-0.78,0.181c0.354,0.42,0.992,0.962,1.914,1.614c0.095,0.04,0.685,0.431,1.749,1.075
			c0.872,0.527,1.961,1.079,3.201,1.664c0.001,0.015,0.001,0.023,0.001,0.038c-0.058,0.006-0.088,0.009-0.146,0.014
			c-0.237-0.075-0.356-0.129-0.358-0.163c-0.03,0.021-0.045,0.031-0.075,0.052c-0.028,0.003-0.042,0.004-0.07,0.007
			c-0.023,0.002-0.036-0.011-0.037-0.041c-0.089,0.034-0.156,0.133-0.201,0.296c0.142,0.037,0.214,0.081,0.216,0.132
			c-0.057,0.061-0.102,0.094-0.138,0.097c-0.073-0.011-0.11-0.016-0.183-0.026c0.001,0.018,0.001,0.027,0.001,0.045
			c0.002,0.051,0.04,0.073,0.114,0.065c0.002,0.046,0.002,0.069,0.004,0.115c-0.014,0.001-0.021,0.002-0.035,0.004
			c-0.055,0.006-0.6-0.274-1.636-0.854c-0.735-0.333-1.635-0.866-2.7-1.611c-0.345-0.148-0.99-0.611-1.936-1.405
			c-0.044,0.004-0.067,0.006-0.111,0.01c-0.128,0.256-0.286,0.853-0.474,1.797c-0.039,0.223-0.267,0.558-0.682,1.01
			c-0.028,0.003-0.042,0.004-0.07,0.007c-0.03-0.045-0.045-0.068-0.074-0.113c-0.001-0.016-0.001-0.024-0.001-0.04
			c-0.002-0.067,0.029-0.194,0.093-0.38c-0.001-0.016-0.001-0.024-0.001-0.04c-0.014,0.001-0.021,0.002-0.035,0.004
			c-0.005,0.072-0.144,0.21-0.414,0.414c-0.014,0.001-0.021,0.002-0.035,0.004c-0.001-0.035-0.002-0.052-0.003-0.087
			c0.735-2.928,1.255-4.804,1.558-5.687c0.52-1.526,0.777-2.385,0.77-2.601c-0.129,0.007-0.408,0.208-0.836,0.61
			c-0.028,0.002-0.042,0.002-0.07,0.004c0.013-0.033,0.019-0.049,0.032-0.082c-0.001-0.032-0.002-0.048-0.003-0.08
			c-0.133,0.007-0.421,0.267-0.865,0.786c-0.014,0.001-0.021,0.001-0.035,0.002c-0.001-0.019-0.001-0.028-0.002-0.047
			c0.177-0.255,0.265-0.382,0.442-0.636c0.026-0.05,0.04-0.074,0.066-0.124c-0.001-0.016-0.001-0.024-0.001-0.04
			c-0.028,0.002-0.042,0.002-0.07,0.004c-0.166,0.172-0.248,0.259-0.414,0.432c-0.047,0.003-0.071-0.023-0.073-0.076
			c0.426-0.593,0.995-1.217,1.592-1.506c0.49-0.237,0.878-0.414,0.87-0.647C30.531,3.701,30.545,3.693,30.573,3.676z M29.653,9.338
			c0.016-0.001,0.025-0.002,0.041-0.003c0.253-0.083,0.379-0.125,0.632-0.208c-0.015-0.031-0.023-0.046-0.038-0.077
			C29.862,9.144,29.65,9.24,29.653,9.338z M29.786,8.922c0.001,0.016,0.001,0.024,0.001,0.04c0.028-0.002,0.042-0.003,0.07-0.005
			c0.046-0.03,0.081-0.046,0.104-0.048c0.001,0.016,0.001,0.024,0.001,0.04c0.574-0.158,0.914-0.314,1.023-0.471
			c-0.014,0.001-0.021,0.001-0.035,0.002C30.432,8.657,30.044,8.805,29.786,8.922z M29.814,8.72
			c0.014-0.001,0.021-0.002,0.035-0.003c0.422-0.128,0.634-0.225,0.636-0.291c-0.029-0.047-0.044-0.085-0.045-0.116
			c0.898-0.411,1.493-0.793,1.786-1.156c0.031-0.002,0.213-0.24,0.545-0.71c0.014-0.001,0.021-0.001,0.035-0.002
			c0.001,0.016,0.001,0.023,0.001,0.039c-0.044,0.089-0.065,0.158-0.064,0.206c0.014-0.001,0.021-0.001,0.035-0.002
			c0.3-0.282,0.444-0.579,0.434-0.895c-0.003-0.096-0.005-0.144-0.008-0.24c-0.07,0.003-0.106-0.021-0.108-0.073
			c0.12-0.032,0.179-0.099,0.175-0.203c-0.005-0.138-0.249-0.258-0.728-0.364c-0.385-0.085-0.804-0.121-1.253-0.1
			c-0.23,0.011-0.441,0.488-0.633,1.436C30.569,6.366,30.287,7.183,29.814,8.72z M30.127,5.263c0.001,0.019,0.001,0.028,0.002,0.046
			c0.035-0.002,0.069-0.046,0.101-0.131c-0.001-0.016-0.001-0.024-0.001-0.04C30.194,5.141,30.16,5.182,30.127,5.263z M30.188,6.029
			c0.014-0.001,0.021-0.001,0.035-0.002c0.069-0.03,0.102-0.112,0.097-0.244C30.282,5.785,30.237,5.867,30.188,6.029z
			 M31.164,11.716c0.001,0.032,0.002,0.047,0.003,0.079c0.377,0.287,0.609,0.425,0.694,0.417c-0.1-0.061-0.151-0.124-0.153-0.19
			C31.491,11.901,31.382,11.839,31.164,11.716z M32.223,12.494c0.031,0.106,0.105,0.154,0.222,0.143
			c0.014-0.001,0.021-0.002,0.035-0.003c-0.001-0.016-0.001-0.023-0.001-0.039c-0.055,0.005-0.126-0.03-0.215-0.104
			C32.247,12.492,32.239,12.493,32.223,12.494z M33.543,6.008c0.001,0.034,0.002,0.051,0.003,0.084
			c0.035-0.002,0.069-0.045,0.101-0.128c-0.001-0.016-0.001-0.023-0.001-0.039c-0.014,0.001-0.021,0.001-0.035,0.002
			C33.564,5.937,33.542,5.964,33.543,6.008z M33.856,4.659c0.001,0.016,0.001,0.023,0.001,0.039c0.01,0.051,0.034,0.076,0.073,0.075
			c-0.001-0.015-0.001-0.023-0.001-0.039C33.927,4.682,33.903,4.657,33.856,4.659z M34.586,13.7c0.193,0.166,0.484,0.32,0.872,0.462
			c0.013-0.032,0.02-0.048,0.033-0.08c-0.299-0.167-0.577-0.297-0.834-0.388C34.628,13.696,34.614,13.697,34.586,13.7z
			 M36.566,14.129c0.042-0.004,0.063-0.006,0.105-0.01c0.047,0.004,0.071,0.027,0.073,0.069c-0.047,0.005-0.069,0.045-0.066,0.121
			c-0.028,0.003-0.042,0.004-0.07,0.007c0.013-0.032,0.02-0.048,0.033-0.08c-0.001-0.015-0.001-0.023-0.001-0.038
			c-0.028,0.003-0.042,0.004-0.07,0.007C36.568,14.175,36.567,14.16,36.566,14.129z"/>
		<path style="fill:#FFFFFF;" d="M31.192,8.589c0.071-0.005,0.107-0.007,0.178-0.012c0.002,0.055,0.003,0.083,0.005,0.138
			c-0.091,0.006-0.17,0.035-0.237,0.086c-0.026-0.053-0.04-0.08-0.066-0.134C31.119,8.636,31.143,8.62,31.192,8.589z M50.034,0
			c0.07,0.038,0.151,0.057,0.242,0.059c0.145-0.019,0.217-0.028,0.361-0.046c0.002,0.046,0.002,0.069,0.004,0.114
			c-0.074-0.002-0.111-0.002-0.185-0.004c0.001,0.024,0.001,0.036,0.002,0.061c0.246,0.13,0.373,0.29,0.379,0.478
			c-0.047-0.001-0.07-0.001-0.116-0.002c-0.076-0.047-0.113-0.071-0.189-0.118c-0.064-0.001-0.161,0.096-0.292,0.292
			c-0.077-0.001-0.117-0.022-0.118-0.063c-0.735-0.011-1.232,0.162-1.489,0.519c-1.957,0.462-3.975,1.257-6.054,2.429
			c-0.669,0.331-1.487,1.06-2.453,2.214c0.003,0.078,0.004,0.117,0.007,0.196c0.12-0.005,0.181-0.007,0.301-0.012
			c0.036-0.001,0.055,0.019,0.057,0.063c0.048-0.028,0.073-0.042,0.121-0.07c0.025-0.001,0.037-0.001,0.062-0.002
			c0.041-0.002,0.062,0.019,0.064,0.062c0.046-0.028,0.068-0.042,0.114-0.069c0.41-0.016,0.615-0.024,1.026-0.039
			c0.228-0.008,0.548,0.001,0.96,0.029c0.048-0.027,0.073-0.041,0.121-0.068c1.205,0.133,1.809,0.235,1.811,0.305
			c0.082-0.003,0.122-0.044,0.119-0.123c0.121,0.021,0.182,0.032,0.303,0.053c0.071-0.002,0.107-0.003,0.178-0.006
			c0.003,0.088,0.185,0.164,0.549,0.227c0.002,0.047,0.002,0.071,0.004,0.118c-0.121-0.018-0.182-0.027-0.303-0.046
			c-0.12,0.026-0.179,0.04-0.299,0.066c0.002,0.05,0.003,0.076,0.004,0.126c0.242,0.017,0.362,0.025,0.604,0.041
			c0.002,0.072,0.004,0.109,0.006,0.181c-0.168-0.019-0.252-0.029-0.419-0.048c0.002,0.06-0.269,0.356-0.812,0.896
			c0.003,0.084-0.358,0.694-1.081,1.857c-1.595,2.539-2.816,4.462-3.666,5.666c-0.022,0.002-0.033,0.003-0.055,0.006
			c-0.124-0.031-0.187-0.066-0.188-0.105c-0.479,0.098-0.718,0.148-1.197,0.248c-0.003-0.103-0.599-0.554-1.785-1.381
			c-0.51-0.788-0.782-1.684-0.815-2.678c-0.041,0.003-0.066-0.126-0.075-0.39c-0.029-0.86,0.123-1.791,0.455-2.784
			c-0.001-0.024-0.001-0.036-0.002-0.059c-0.123,0.007-0.184,0.031-0.182,0.071c-0.121-0.016-0.182-0.025-0.303-0.041
			c-1.508,0.197-2.261,0.299-3.768,0.512c-0.026-0.053-0.04-0.08-0.066-0.133c-0.001-0.027-0.001-0.041-0.002-0.069
			c0.319-0.022,0.476-0.098,0.471-0.231c-0.2,0.013-0.301-0.003-0.303-0.048c-0.119,0.035-0.179,0.053-0.298,0.089
			c-0.12,0.008-0.18,0.012-0.3,0.02c-0.205,0.014-0.325-0.044-0.362-0.175c0.952-0.177,1.427-0.319,1.423-0.43
			c-0.142,0.009-0.213,0.013-0.355,0.023c-0.002-0.051-0.024-0.118-0.068-0.202c0.038-0.079,0.056-0.169,0.053-0.27
			c-0.096,0.006-0.143,0.009-0.239,0.015c-0.001-0.027-0.001-0.041-0.002-0.069c0.006-0.087,0.043-0.133,0.112-0.137
			c0.079,0.041,0.141,0.06,0.187,0.058c0.033-0.083,0.049-0.176,0.045-0.277c0.074-0.004,0.111-0.006,0.184-0.011
			c0.001,0.027,0.001,0.041,0.002,0.068c-0.023,0.056-0.034,0.084-0.057,0.141c0.046-0.003,0.07-0.004,0.116-0.007
			c0.096-0.088,0.143-0.132,0.239-0.219c0.096-0.005,0.143-0.008,0.239-0.014c0.164-0.009,0.382-0.042,0.654-0.097
			c0.041-0.002,0.062,0.017,0.064,0.057c0.119-0.031,0.179-0.046,0.299-0.077c0.528-0.029,0.791-0.043,1.319-0.07
			c1.522-0.079,2.278-0.265,2.268-0.569c0.889-1.253,1.763-2.152,2.62-2.715c1.781-1.346,3.395-1.96,4.259-2.24
			C45.277,0.908,47.188,0.335,50.034,0z M36.339,11.461c0.059,0.542,0.091,0.867,0.094,0.975c0.077-0.007,0.115-0.055,0.112-0.144
			c-0.009-0.261-0.013-0.392-0.022-0.653c-0.029-0.129-0.043-0.193-0.072-0.322C36.374,11.339,36.337,11.387,36.339,11.461z
			 M36.392,9.559c0.002,0.053,0.003,0.08,0.004,0.134c0.025-0.002,0.037-0.003,0.061-0.004c-0.003-0.104,0.088-0.396,0.272-0.873
			c-0.026-0.049-0.039-0.073-0.066-0.122c0.038-0.087,0.056-0.155,0.055-0.204c-0.025,0.002-0.037,0.002-0.061,0.004
			C36.567,8.499,36.478,8.853,36.392,9.559z M37.042,12.837c0.003,0.08,0.004,0.12,0.007,0.2c0.074-0.007,0.111-0.01,0.184-0.017
			C37.231,12.956,37.168,12.895,37.042,12.837z M37.695,10.637c-0.07,1.26,0.582,2.401,1.608,3.034
			c1.392-2.263,2.089-3.367,3.486-5.518c-0.002-0.062,0.034-0.147,0.108-0.255c-0.001-0.023-0.001-0.034-0.002-0.057
			c-0.513-0.033-0.794-0.062-0.845-0.088c-0.041,0.002-0.061,0.024-0.059,0.067c-0.54-0.017-0.939-0.018-1.198-0.005
			c-0.722,0.036-1.083,0.055-1.804,0.094C38.385,7.942,37.786,8.99,37.695,10.637z M38.75,13.524
			c0.002,0.053,0.003,0.079,0.004,0.132c0.084,0.188,0.178,0.298,0.256,0.299c0.069,0.001,0.115-0.055,0.112-0.142
			c-0.002-0.05-0.002-0.074-0.004-0.124C39.063,13.693,38.94,13.639,38.75,13.524z M40.165,14.298
			c0.022-0.002,0.033-0.003,0.055-0.005c0.176-0.206,0.385-0.567,0.628-1.08c-0.025,0.002-0.037,0.003-0.061,0.005
			C40.367,13.786,40.16,14.149,40.165,14.298z M42.846,9.911c-0.883,1.309-1.511,2.332-1.884,3.039
			c0.001,0.026,0.001,0.039,0.002,0.065c0.022-0.002,0.033-0.003,0.055-0.005c1.01-1.59,1.639-2.589,1.884-3.046
			c-0.001-0.023-0.001-0.034-0.002-0.057C42.879,9.909,42.868,9.91,42.846,9.911z M41.453,11.453
			c0.001,0.023,0.001,0.034,0.002,0.057c0.022-0.002,0.033-0.002,0.055-0.004c-0.003-0.096,0.172-0.34,0.523-0.727
			c0.643-1.116,0.963-1.714,0.959-1.818C42.671,9.326,42.158,10.148,41.453,11.453z M43.963,7.481
			c0.096-0.004,0.144-0.006,0.239-0.01C44.201,7.42,44.2,7.394,44.199,7.344c-0.046,0.002-0.07,0.003-0.116,0.005
			C44.001,7.366,43.961,7.41,43.963,7.481z M48.001,0.443c0.001,0.025,0.001,0.037,0.002,0.062c0.096,0.001,0.144,0.002,0.24,0.003
			c0.076-0.04,0.137-0.06,0.183-0.059c-0.002-0.049-0.002-0.074-0.004-0.123C48.329,0.406,48.188,0.445,48.001,0.443z M48.477,0.326
			c0.002,0.049,0.002,0.074,0.004,0.123c0.072-0.04,0.154-0.059,0.245-0.058c-0.001-0.025-0.001-0.037-0.002-0.061
			C48.625,0.328,48.575,0.328,48.477,0.326z M48.838,0.27c0.001,0.025,0.001,0.037,0.002,0.061c0.145,0.002,0.218,0.003,0.363,0.006
			c0.144-0.022,0.217-0.033,0.361-0.055c-0.001-0.022-0.001-0.033-0.002-0.054c-0.025,0-0.037-0.001-0.062-0.001
			C49.282,0.259,49.062,0.274,48.838,0.27z"/>
		<path style="fill:#FFFFFF;" d="M52.154,2.811c0.012,0,0.212,0,0.212,0s0,0.473,0,0.485c0,0.011-0.099,0.055-0.116,0.131
			c0.071,0.141,0.106,0.257,0.195,0.348c0,0.014-0.022,0.021-0.022,0.034c-0.148,0.487-0.37,1.041-0.642,1.664
			c-0.366,0.838-0.555,1.261-0.921,2.111c0.155,0.08-0.018,0.131-0.017,0.154c-0.049,0.048,0.523,0.073-0.477,0.077
			c0,0.012,0,0.017,0,0.029c1,0.025,0.271,0.037,0.286,0.062c-0.243,0.101-0.277,0.28-0.351,0.538
			c-1.4,2.826-2.355,4.785-2.991,5.758c-0.014,0.001,0.01,0.002-0.004,0.003c-0.003-0.104,0.01-0.156,0.007-0.261
			c0.278-0.474,0.592-1.129,0.928-1.957c0.062-0.108,0.097-0.162,0.159-0.27c-0.001-0.028,0.001-0.042,0-0.071
			c-0.07,0.005-0.225,0.267-0.466,0.793c-0.057,0.051-0.17,0.28-0.34,0.688c-0.023,0.002-0.124,0.207-0.302,0.617
			c-0.078,0.006-0.11,0.132-0.155,0.28c-0.031,0.104-0.108,0.176-0.158,0.18c-0.066-0.009-0.099-0.013-0.165-0.022
			c0.001,0.04,0.002,0.061,0.003,0.101c-0.023,0.002-0.036-0.009-0.036-0.033c-0.025,0.016-0.038,0.025-0.063,0.041
			c-0.044-0.02-0.077-0.029-0.101-0.027c0.265-0.739,0.58-1.428,0.946-2.066c0.246-0.506,0.369-0.757,0.615-1.258
			c-0.002-0.047,0.132-0.331,0.4-0.847c-0.001-0.039,0.101-0.253,0.307-0.638c0.327-0.641,0.487-1.05,0.481-1.233
			c-0.014,0.001-0.021,0.001-0.035,0.001c-1.11,0.044-1.662,0.145-1.657,0.299c-1.237,1.162-2.159,2.017-2.768,2.523
			c-0.014,0.001-0.021,0.001-0.035,0.002c0-0.014-0.001-0.022-0.001-0.036c0.02-0.09,0.062-0.137,0.124-0.141
			c0-0.014-0.001-0.022-0.001-0.036c-0.035,0.002-0.1-0.016-0.195-0.054c0.002,0.072-0.05,0.144-0.157,0.216
			c-0.026,0.002-0.039,0.003-0.064,0.004c0-0.014-0.001-0.022-0.001-0.036c-0.001-0.024,0.009-0.037,0.028-0.038
			c-0.013-0.026-0.019-0.039-0.031-0.064c-0.001-0.027-0.001-0.04-0.002-0.066c0.035-0.082,0.052-0.123,0.087-0.205
			c-0.065,0.016-0.098,0.024-0.163,0.041c-0.012,0.001-0.018,0.001-0.029,0.002c0.099-0.21,0.148-0.314,0.247-0.523
			c0.152-0.144,0.229-0.216,0.381-0.36c0.456-0.469,0.684-0.702,1.141-1.162C46.232,8.55,46.232,8.53,46.23,8.489
			c-0.051,0.002-0.096-0.005-0.136-0.024c-0.02,0.001-0.029,0.011-0.028,0.031C46,8.488,45.967,8.484,45.901,8.475
			c-0.197,0.009-0.295,0.014-0.492,0.023c-0.121,0.006-0.274,0.001-0.458-0.014c-0.023,0.001-0.035,0.014-0.034,0.038
			c-0.016,0.001-0.091-0.021-0.195-0.027c-1.524-0.086-2.557,0.064-2.561-0.071c0.197-0.194,0.379-0.295,0.547-0.304
			c0,0.015,0.001,0.022,0.001,0.037c0.027-0.026,0.102-0.042,0.227-0.048c0-0.015-0.001-0.022-0.001-0.037
			c-0.04,0.002-0.06,0.003-0.1,0.005c-0.001-0.027-0.001-0.04-0.002-0.067c0.014-0.001,0.021-0.001,0.035-0.002
			C43.041,8,43.445,7.97,44.081,7.921c0.011-0.03,0.016-0.044,0.027-0.074c-0.066-0.009-0.099-0.014-0.165-0.023
			c-0.143,0.007-0.214,0.01-0.357,0.016c-0.001-0.027-0.001-0.04-0.002-0.067c0.012-0.001,0.12-0.04,0.325-0.118
			c0.026,0.013,0.039,0.02,0.066,0.033c0.012-0.001,0.054-0.015,0.128-0.042c0.026,0.013,0.039,0.02,0.066,0.033
			c0.028-0.016,0.041-0.024,0.069-0.039c0.043-0.002,0.065,0.009,0.066,0.033c0.131-0.02,0.196-0.03,0.327-0.05
			c0.286-0.012,0.429-0.018,0.715-0.03c0.001,0.041,0.002,0.061,0.003,0.102c0.028-0.001,0.042-0.002,0.07-0.003
			c0.043-0.002,0.063-0.037,0.061-0.105c0.012,0,0.018-0.001,0.029-0.001c0.002,0.068,0.082,0.099,0.238,0.092
			c0.103-0.004,0.155-0.006,0.258-0.011c0.074-0.003,0.129-0.017,0.163-0.042c0.08,0.011,0.12,0.017,0.2,0.028
			c0.157-0.006,0.425-0.009,0.582-0.016c0.091-0.018,0.417-0.027,0.417-0.045c0-0.012,0-0.018,0-0.03c0,0.002-0.25,0.002-0.29,0.004
			c0-0.014-0.096-0.021-0.096-0.036c0.006-0.044-0.02-0.066,0.015-0.068c0.106-0.004,0.135-0.006,0.24-0.01
			c0.25-0.009,0.442-0.106,0.601-0.288c0.001,0.024,0.007,0.035,0.03,0.034c-0.002-0.059,0.037-0.106,0.121-0.14
			c-0.002-0.067,0.165-0.226,0.505-0.475c0.04-0.091,0.511-0.727,1.338-1.434C50.964,4.181,51.741,3.811,52.154,2.811z
			 M43.891,8.197c0.001,0.027,0.001,0.04,0.002,0.067c0.052-0.003,0.077-0.004,0.129-0.006c0-0.012-0.001-0.018-0.001-0.03
			C43.969,8.215,43.943,8.209,43.891,8.197z M44.091,8.223c0,0.012,0.001,0.018,0.001,0.03c0.143-0.007,0.214-0.01,0.357-0.017
			c0-0.012-0.001-0.018-0.001-0.03C44.305,8.213,44.234,8.216,44.091,8.223z M44.172,7.844c0,0.015,0.001,0.022,0.001,0.036
			c0.091-0.004,0.137-0.006,0.229-0.01c0-0.014-0.001-0.022-0.001-0.036C44.309,7.838,44.264,7.84,44.172,7.844z M44.465,10.636
			c0,0.014,0.001,0.022,0.001,0.036c0.001,0.044-0.019,0.068-0.062,0.071c0-0.014-0.001-0.022-0.001-0.036
			C44.405,10.662,44.426,10.638,44.465,10.636z M44.486,11.276c0.026-0.002,0.039-0.003,0.064-0.004
			c0,0.014,0.001,0.022,0.001,0.036c0.001,0.044-0.019,0.068-0.062,0.071c-0.043,0.003-0.065-0.018-0.067-0.062
			C44.448,11.3,44.461,11.292,44.486,11.276z M44.484,8.205c0.001,0.027,0.001,0.04,0.002,0.066
			c0.391-0.019,0.587-0.028,0.979-0.046c0-0.014-0.001-0.022-0.001-0.036C45.155,8.203,44.828,8.208,44.484,8.205z M44.684,8.394
			c0,0.014,0.001,0.022,0.001,0.036c0.258-0.012,0.465-0.01,0.622,0.006c0.085-0.028,0.161-0.044,0.227-0.047
			c-0.001-0.026-0.001-0.04-0.002-0.066c-0.209,0.01-0.313,0.015-0.522,0.024C44.88,8.367,44.814,8.376,44.684,8.394z M45.697,8.346
			c0.009,0.048,0.034,0.07,0.073,0.069c0.038-0.002,0.056-0.003,0.094-0.004c-0.002-0.048-0.024-0.071-0.067-0.069
			C45.757,8.344,45.737,8.345,45.697,8.346z M45.97,7.533c0.129-0.005,0.193-0.008,0.322-0.013c0.001,0.029,0.001,0.043,0.002,0.071
			c-0.129,0.005-0.193,0.008-0.322,0.013C45.971,7.576,45.97,7.561,45.97,7.533z M46.933,13.877
			c0.001,0.024-0.008,0.058-0.026,0.103c0.052-0.004,0.077-0.006,0.129-0.011c0-0.014-0.001-0.021-0.001-0.036
			c-0.001-0.044-0.024-0.064-0.067-0.06C46.954,13.875,46.947,13.875,46.933,13.877z M47.084,7.525c0,0.014,0.001,0.021,0.001,0.036
			c0.064,0.009,0.096,0.014,0.159,0.024c-0.001-0.026-0.001-0.039-0.002-0.065C47.179,7.521,47.148,7.522,47.084,7.525z
			 M48.612,8.091c-0.185,0.007-0.278,0.011-0.463,0.019c0.009,0.043,0.033,0.063,0.072,0.062c0.026-0.001,0.039-0.002,0.064-0.003
			c0.078-0.003,0.176-0.017,0.292-0.041c0.026,0.011,0.039,0.016,0.065,0.027c0.035-0.021,0.089-0.033,0.163-0.036
			c-0.015-0.028-0.023-0.041-0.038-0.069C48.706,8.066,48.674,8.074,48.612,8.091z M48.949,7.457
			c0.086-0.003,0.129,0.007,0.13,0.031c0.042-0.025,0.075-0.038,0.098-0.038c0.039-0.001,0.236-0.02,0.591-0.055
			c-0.001-0.026-0.001-0.038-0.002-0.064c-0.028,0.001-0.042,0.001-0.07,0.002C49.195,7.349,48.946,7.39,48.949,7.457z
			 M49.004,8.075c0,0.014,0.001,0.021,0.001,0.035c0.105-0.028,0.245-0.045,0.421-0.051c0-0.014-0.001-0.021-0.001-0.035
			c-0.131,0.005-0.197,0.007-0.328,0.013C49.059,8.062,49.028,8.074,49.004,8.075z M50.374,6.018
			c-0.782,0.716-1.172,1.102-1.171,1.137c0.001,0.037,0.002,0.056,0.003,0.093c0.036,0.022,0.079,0.032,0.13,0.031
			c0.04-0.001,0.06-0.002,0.1-0.003c0.091-0.017,0.136-0.025,0.227-0.042c0,0.014,0.001,0.021,0.001,0.035
			c0.25-0.008,0.4-0.274,0.537-0.603c0.112-0.27,0.248-0.497,0.243-0.62C50.416,6.035,50.402,6.029,50.374,6.018z"/>
		<path style="fill:#FFFFFF;" d="M54.654,2.905c0.001,0.022,0.001,0.034,0.002,0.056c-0.043,0.104-0.088,0.179-0.133,0.224
			c0.054,0.079,0.096,0.236,0.127,0.472c0.051,0,0.103,0.436,0.245,1.177c0.087,0.456,0.226,1.206,0.337,2.196
			c0.023,0,0.035-0.001,0.059-0.001c0.865-0.697,1.869-1.556,3.013-2.557c0.548-0.457,0.892-0.695,1.032-0.726
			c0.012,0.022,0.019,0.033,0.031,0.055c-0.111,0.06-0.188,0.123-0.228,0.187c0.039,0.008,0.171,0.026,0.172,0.055
			c-0.022,0.032,0.055,0.049,0.055,0.081c0,0.011,0,0.016,0,0.027c0,0-0.04-0.085,0.008-0.049c-0.001-0.025-0.045-0.292,0.088-0.292
			c0.035,0,0.053,0,0.088,0c0.021,0,0.032,0.353,0.033,0.375c-0.467,1.125-1.25,2.807-2.346,5.011
			c-0.499,1.16-0.748,1.773-1.246,2.957c-0.137,0.008-0.33,0.374-0.581,1.078c-0.088,0.163-0.133,0.251-0.221,0.414
			c-0.012-0.022-0.019-0.029-0.031-0.051c0.257-0.516,0.384-0.809,0.381-0.887c-0.024-0.01-0.036-0.014-0.059-0.023
			c-0.02,0.11-0.047,0.166-0.082,0.168c-0.012-0.019-0.019-0.029-0.031-0.048c-0.001-0.034,0.107-0.321,0.323-0.859
			c-0.012,0.001-0.018,0.001-0.029,0.002c-0.1,0.058-0.238,0.326-0.413,0.809c-0.012,0.001-0.018,0.001-0.029,0.002
			c0.012,0.022,0.019,0.033,0.031,0.054c0.001,0.02,0.001,0.03,0.002,0.05c0.001,0.037-0.018,0.057-0.057,0.06
			s-0.059-0.015-0.06-0.052c-0.001-0.045,0.116-0.332,0.353-0.857c-0.002-0.063,0.094-0.404,0.289-1.016
			c-0.006-0.193,0.418-1.206,1.274-2.98c0.424-0.936,0.636-1.289,1.061-2.209c0.018-0.033,0.027,0.002,0.026,0.002
			c-0.012,0-0.018,0-0.029,0c-0.843,1-1.761,1.465-2.753,2.335c-0.011,0.023-0.016-0.022-0.027,0.001
			c0.023,0.096,0.035,0.15,0.038,0.217c-0.058,0.024-0.087,0.022-0.145,0.046c0.021,0.044,0.044,0.13,0.068,0.271
			c-0.035,0.001-0.053-0.002-0.088-0.001C55.183,8.458,55.15,8.345,55.1,8.347c-0.059,0.002-0.088,0.002-0.147,0.004
			c-0.01,0.056-0.015,0.084-0.025,0.141c0.008,0.232,0.045,0.455,0.11,0.669c-0.023,0.012-0.035,0.018-0.058,0.03
			c-0.045-0.047-0.101-0.269-0.169-0.668c-0.021,0.001-0.032,0.001-0.053,0.002c-0.009,0.079-0.014,0.118-0.023,0.197
			c0.001,0.034,0.002,0.051,0.003,0.084c-0.012,0-0.084,0.001-0.096,0.001c-0.084-0.065-0.278-0.097-0.278-0.162
			c0-0.011,0-0.017,0-0.028c0-0.058,0.134-0.087,0.179-0.144c-0.003-0.079,0.029-0.118,0.027-0.197
			c-0.001-0.041,0.004-0.076-0.016-0.106c-0.001-0.019-0.083-0.028-0.063-0.029c-0.014-0.056-0.126-0.084-0.126-0.14
			c0-0.011,0-0.017,0-0.028c0-1.384-0.144-2.3-0.256-2.746c-0.001-0.019,0.059-0.112,0.078-0.113
			c-0.022-0.071,0.016-0.303,0.013-0.303c-0.012,0-0.018,0-0.029,0c-0.743,2-1.231,2.895-1.465,3.5
			c-0.096,0.174-0.152,0.304-0.167,0.305c-0.001-0.034-0.002-0.03-0.003-0.065c0.092-0.175,0.209-0.471,0.351-0.908
			c-0.023,0.001-0.035,0.006-0.059,0.007c-0.559,1.422-0.981,2.486-1.268,3.166c-0.16,0.124-0.274,0.237-0.341,0.337
			c-0.001-0.019-0.055-0.028-0.075-0.026c0.178-0.514,0.22-0.796,0.22-0.85c0-0.012,0-0.017,0-0.029
			c0,0.001,0.027,0.001,0.015,0.001c-0.231,0.461-0.373,0.827-0.47,1.095c-0.034,0.025-0.252,0.038-0.286,0.063
			c-0.023,0.001-0.259,0.002-0.259,0.003c0-0.012,0-0.017,0-0.029c1-0.45,0.783-1.277,1.208-2.466
			c-0.002-0.057,0.103-0.086,0.101-0.143c-0.012,0,0.035,0.001,0.023,0.001c0.002,0.046-0.122,0.47-0.424,1.28
			c-0.043,0.117-0.067,0.177-0.098,0.179c-0.021-0.034-0.025-0.062-0.026-0.085c0.01-0.058,0.018-0.087,0.028-0.146
			c-0.051,0.002-0.08-0.033-0.09-0.105c0.24-0.539,0.723-1.524,1.463-3.281c0.561-1.332,1.093-2.805,1.567-2.805
			c0.012,0,0.018,0,0.029,0c-0.011,0-0.016-0.02-0.027,0.003c0.001,0.02,0.001-0.003,0.002-0.003c0.035,0,0.053,0,0.088,0
			s0.128-0.287,0.28-0.563C54.58,3.118,54.634,2.905,54.654,2.905z M52.328,7.614c0.085-0.033,0.303-0.544,0.653-1.521
			C52.849,6.224,52.631,6.728,52.328,7.614z M52.54,8.686c0.001,0.023,0.001,0.034,0.002,0.057
			c-0.037,0.066-0.055,0.124-0.053,0.173c-0.023,0.001-0.035,0.001-0.059,0.002C52.461,8.766,52.497,8.688,52.54,8.686z
			 M52.937,7.396c-0.021,0.069-0.032,0.103-0.053,0.172c0,0.011,0.001,0.017,0.001,0.028c0.012,0,0.018-0.001,0.029-0.001
			c-0.001-0.027,0.027-0.084,0.082-0.173C52.973,7.413,52.961,7.407,52.937,7.396z M53.136,5.607
			c-0.062,0.171-0.094,0.257-0.156,0.429c0,0.011,0.001,0.017,0.001,0.028c0.012,0,0.018,0,0.029-0.001
			c-0.001-0.03,0.051-0.173,0.156-0.429c0-0.011-0.001-0.017-0.001-0.028C53.154,5.607,53.148,5.607,53.136,5.607z M53.289,5.804
			c0.002,0.045,0.002,0.068,0.004,0.113c0.012,0,0.018,0,0.029,0c0.01-0.046,0.015-0.068,0.026-0.114
			C53.324,5.803,53.313,5.803,53.289,5.804z M53.482,5.433c0.001,0.023,0.001,0.034,0.002,0.057
			c0.084-0.058,0.295-0.494,0.632-1.298c-0.002-0.045-0.002-0.068-0.004-0.113C53.879,4.469,53.669,4.921,53.482,5.433z
			 M54.579,6.651c0.005,0.146,0.007,0.219,0.012,0.365c0.009,0.262,0.036,0.496,0.082,0.701c0.023-0.001,0.035-0.001,0.059-0.002
			c-0.032-0.359-0.071-0.667-0.119-0.924c0.012,0,0.018,0,0.029-0.001c-0.021-0.03-0.032-0.076-0.034-0.14
			C54.597,6.651,54.591,6.651,54.579,6.651z M54.689,8.189c0.001,0.022,0.001,0.034,0.002,0.056
			c0.005,0.037,0.025,0.055,0.061,0.054c0.012,0,0.018-0.001,0.029-0.001c-0.002-0.065-0.003-0.098-0.005-0.163
			c-0.012,0-0.018,0.001-0.029,0.001C54.707,8.141,54.688,8.159,54.689,8.189z M54.805,5.671c0.001,0.022,0.001,0.034,0.002,0.056
			c0.015,0.449,0.053,0.989,0.113,1.619c0.023-0.001,0.035-0.001,0.059-0.001c-0.066-0.81-0.061-1.407-0.112-1.591
			c-0.009-0.031-0.032-0.065-0.032-0.084C54.822,5.67,54.817,5.67,54.805,5.671z M55.211,8.173c0,0.011,0.001,0.017,0.001,0.028
			c0.014,0.056,0.02,0.083,0.034,0.139c0.012,0,0.018-0.001,0.029-0.001c-0.001-0.045-0.002-0.067-0.004-0.112
			C55.27,8.19,55.25,8.172,55.211,8.173z M55.337,7.532c0.001,0.022,0.001,0.034,0.002,0.056c0.055-0.001,0.15-0.088,0.285-0.258
			c-0.001-0.022-0.001-0.033-0.002-0.056C55.431,7.431,55.336,7.517,55.337,7.532z M55.614,12.315
			c-0.035,0.121-0.052,0.188-0.052,0.199c0.077-0.035,0.114-0.102,0.111-0.202C55.649,12.313,55.637,12.313,55.614,12.315z
			 M55.649,7.218c0.001,0.033,0.002,0.05,0.003,0.084c0.137-0.115,0.206-0.172,0.343-0.286c0.389-0.301,0.804-0.693,1.246-1.174
			c-0.012,0-0.018,0-0.029,0C56.672,6.327,56.151,6.787,55.649,7.218z M56.483,9.525c-0.276,0.632-0.464,1.113-0.562,1.438
			c0,0.011,0.001,0.017,0.001,0.028c0.035-0.002,0.126-0.211,0.273-0.626c0.031-0.012,0.137-0.285,0.319-0.813
			c0-0.011-0.001-0.017-0.001-0.028C56.501,9.525,56.495,9.525,56.483,9.525z M56.011,6.654c0,0.015-0.047,0.062-0.142,0.142
			c0.001,0.022,0.001,0.033,0.002,0.056c0.099-0.095,0.165-0.142,0.201-0.143C56.071,6.671,56.051,6.653,56.011,6.654z
			 M56.069,6.625c0,0.011,0.001,0.017,0.001,0.028c0.012,0,0.018,0,0.029,0c0.023,0,0.071-0.046,0.142-0.136
			c-0.012,0-0.018,0-0.029,0C56.123,6.552,56.076,6.588,56.069,6.625z M56.24,6.461c0,0.011,0.001,0.017,0.001,0.028
			c0.012,0,0.018,0,0.029,0c0.043-0.004,0.278-0.222,0.706-0.645c0-0.011-0.001-0.017-0.001-0.028
			C56.749,5.961,56.504,6.176,56.24,6.461z M57.222,6.172c0.012,0,0.018,0,0.029,0c0.21-0.149,0.314-0.251,0.313-0.306
			c-0.012,0-0.018,0-0.029,0C57.507,5.867,57.403,5.968,57.222,6.172z M57.295,5.731c0.001,0.022,0.001,0.033,0.002,0.055
			c0.089-0.037,0.136-0.074,0.143-0.111c-0.012,0-0.018,0-0.029,0C57.365,5.712,57.326,5.73,57.295,5.731z M57.439,5.647
			c0.012,0,0.018,0,0.029,0c0.134-0.078,0.201-0.133,0.2-0.166c0-0.011-0.001-0.016-0.001-0.027c-0.012,0-0.018,0-0.029,0
			C57.607,5.454,57.54,5.518,57.439,5.647z M57.677,5.755c0.012,0,0.018,0,0.029,0c0.347-0.281,0.564-0.463,0.651-0.55
			c-0.001-0.033-0.002-0.049-0.003-0.082C58.084,5.374,57.948,5.501,57.677,5.755z M57.865,5.233
			c0.001,0.022,0.001,0.033,0.002,0.055c0.035-0.018,0.064-0.028,0.087-0.028c-0.001-0.022-0.001-0.033-0.002-0.055
			C57.914,5.224,57.885,5.233,57.865,5.233z M58.013,7.008c0.001,0.033-0.017,0.088-0.053,0.165c0.023,0,0.035-0.001,0.059-0.001
			c-0.002-0.062,0.004-0.108,0.019-0.137c0-0.011-0.001-0.016-0.001-0.027C58.027,7.008,58.022,7.008,58.013,7.008z M58.316,4.855
			c0,0.011,0.001,0.016,0.001,0.027c0.027,0,0.056-0.027,0.085-0.082c0-0.011-0.001-0.016-0.001-0.027
			C58.374,4.773,58.346,4.801,58.316,4.855z M58.7,5.804c0.023,0,0.035,0,0.059,0C59.05,5.138,59.23,4.68,59.3,4.424
			C59.155,4.647,58.955,5.105,58.7,5.804z"/>
		<path style="fill:#FFFFFF;" d="M64.466,3.451c0.044,0.025,0.095,0.039,0.154,0.04c0.086,0.002,0.15,0.145,0.193,0.121
			c0.142,0.028,0.26,0.198,0.354,0.198c0.014,0,0.021,0,0.035,0c0.093,0,0.14-0.171,0.234-0.183
			c0.044,0.025,0.095-0.038,0.154-0.036c0.059,0.002,0.109-0.047,0.151-0.07c0.146,0.028,0.25,0.024,0.312,0.025
			c0.108-0.011,0.161-0.027,0.269-0.038c0.031,0.015,0.047,0.018,0.078,0.033c0.055,0.002,0.082-0.012,0.081-0.036
			c0.224,0.03,0.352,0.045,0.383,0.046c0.247,0.007,1.28,0.045,3.102,0.128c0,0.014,0.001,0.021,0.001,0.035
			c0.03-0.013,0.045-0.02,0.075-0.032c0.228,0.031,0.369,0.048,0.424,0.05c0.001,0.026,0.001,0.039,0.002,0.065
			c-0.014,0-0.021-0.001-0.035-0.001c-0.027-0.001-0.041-0.011-0.042-0.031c-0.03,0.011-0.045,0.016-0.075,0.027
			C70.287,3.79,70.273,3.78,70.272,3.76c-0.03,0.011-0.045,0.016-0.075,0.027c-0.031-0.013-0.046-0.019-0.077-0.032
			c-0.18,0.007-0.269,0.026-0.268,0.056c0.025,0.044,0.038,0.078,0.039,0.101c0.155,0.005,0.233,0.008,0.388,0.013
			c0.001,0.033,0.03,0.077,0.087,0.132c-0.144,0.028-0.271,0.079-0.382,0.152c-0.02-0.001-0.098-0.015-0.236-0.042
			c-0.05,0.022-0.089,0.032-0.116,0.031c-0.023-0.001-0.036-0.013-0.036-0.036c-0.108,0.011-0.161,0.016-0.269,0.027
			c-0.233-0.007-0.349-0.01-0.581-0.017c-0.051,0.005-0.075,0.026-0.074,0.063c0.103,0.026,0.193,0.04,0.271,0.043
			c0,0.012,0.001,0.018,0.001,0.03c0.001,0.034-0.037,0.066-0.114,0.098c-0.124-0.003-0.187-0.005-0.311-0.008
			c-0.106-0.003-0.246,0.006-0.422,0.025c-0.044-0.025-0.129-0.053-0.195-0.04c-0.042,0.008-0.089,0.033-0.116,0.033
			c0-0.014-0.001-0.021-0.001-0.036c-0.042,0.023-0.093,0.033-0.151,0.032c0.001,0.026,0.001,0.04,0.002,0.066
			c0.2,0.005,0.299,0.007,0.499,0.012c0.001,0.026,0.001,0.039,0.002,0.066c-0.939-0.002-1.671,0.018-2.198,0.056
			c-0.027-0.001-0.067-0.013-0.119-0.038c-1.34,0.044-2.294-0.153-2.861-0.16c-0.133-0.002-0.306,0.398-0.519,0.398
			c-0.031,0-0.046,0-0.076,0c0,0-0.001,0.201-0.001,0.189c0.048-0.077,0.072-0.025,0.07-0.064c-0.082-0.001-0.39,0.514-0.922,1.452
			c0.017,0.03,0.026,0.072,0.044,0.102c0.05-0.025,0.089-0.024,0.116-0.024c0.002,0.053,0.905,0.112,2.71,0.173
			c0.001,0.031,0.131,0.072,0.389,0.086c0.002,0.045-0.023,0.086-0.074,0.086c-0.077,0-0.116,0-0.194,0
			c0.001,0,0.001,0.029,0.002,0.058c0.185,0.02,0.287,0.023,0.306,0.023c0.001,0.027,0.001,0.037,0.002,0.064
			c-0.199,0-0.299-0.001-0.499,0c-0.077,0.015-0.115,0.021-0.192,0.036c0.001,0.027,0.001,0.04,0.002,0.068
			c0.18-0.001,0.271,0.044,0.274,0.134c0.002,0.049,0.067,0.073,0.196,0.072c0.001,0.027,0.001,0.041,0.002,0.068
			c-0.35,0.072-0.671,0.109-0.964,0.112c-0.277,0.002-0.415,0.004-0.692,0.006c-0.093,0.014-0.14,0.02-0.234,0.034
			c-0.044-0.021-0.109-0.031-0.195-0.03c-0.353,0.096-0.66,0.146-0.922,0.149c-0.061-0.014-0.092-0.021-0.154-0.035
			c-0.123,0.032-0.185,0.047-0.308,0.079c-0.052-0.024-0.091-0.036-0.119-0.036c-0.13,0.077-0.278,0.292-0.442,0.647
			c-0.56,1.044-0.837,1.639-0.833,1.762c0.078,0.012,0.117,0.019,0.195,0.031c0.171-0.006,0.257-0.009,0.428-0.015
			c0.199-0.007,0.379,0,0.541,0.019c0.12-0.029,0.3-0.048,0.538-0.055c0.033,0.014,0.05,0.021,0.083,0.035
			c0.042-0.026,0.093-0.04,0.151-0.042c0.092,0.012,0.138,0.018,0.23,0.03c0.027-0.001,0.041-0.014,0.04-0.039
			c0.759,0.019,1.138,0.029,1.897,0.049c0.001,0.027,0.001,0.041,0.002,0.068c-0.093,0.017-0.14,0.026-0.233,0.044
			c-0.002-0.049-0.028-0.073-0.079-0.071c0.004,0.123-0.392,0.205-1.189,0.249c0,0.015,0.001,0.022,0.001,0.037
			c0.061-0.002,0.091-0.003,0.152-0.005c0.032-0.016,0.048-0.024,0.081-0.04c0.126,0.021,0.189,0.041,0.19,0.063
			c0.032-0.014,0.049-0.021,0.081-0.034c0.014,0,0.021-0.001,0.035-0.001c0.027-0.001,0.041,0.009,0.042,0.03
			c0.03-0.014,0.045-0.021,0.075-0.034c0.247,0.005,0.37,0.007,0.616,0.012c0.027-0.001,0.066-0.013,0.116-0.035
			c0.048,0.02,0.164,0.039,0.348,0.058c0.105-0.028,0.196-0.043,0.274-0.045c0.001,0.027,0.001,0.041,0.002,0.068
			c-0.086,0.003-0.136,0.074-0.151,0.214c-0.281,0.009-0.422,0.024-0.421,0.045c-0.051-0.019-0.091-0.028-0.118-0.028
			c-0.281,0.023-0.421,0.051-0.42,0.083c0.004,0.116-0.111,0.178-0.346,0.187c-0.354,0.013-0.531,0.02-0.885,0.033
			c-0.027,0.001-0.041-0.011-0.042-0.036c-0.03,0.016-0.045,0.024-0.075,0.04c-0.03,0.001-0.046,0.002-0.076,0.003
			c-0.027,0.001-0.041-0.011-0.042-0.036c-0.03,0.016-0.045,0.024-0.075,0.04c-1.171,0.071-2.185,0.021-2.472,0.141
			c-0.081,0.034-0.352,0.578-0.761,1.474c-0.016,0.001-0.025,0.001-0.041,0.002c-0.015-0.028-0.023-0.041-0.038-0.069
			c0.335-0.75,0.528-1.128,0.578-1.145c-0.042-0.096-0.083-0.143-0.122-0.142c-0.014,0.001-0.021,0.001-0.035,0.002
			c0.003,0.084-0.082,0.231-0.255,0.444c-0.016,0.001-0.025,0.001-0.041,0.002c0.07-0.252,0.103-0.421,0.1-0.508
			c-0.027,0.001-0.041,0.015-0.04,0.04c-0.389-0.055-0.585-0.119-0.587-0.192c-0.002-0.057-0.003-0.086-0.005-0.143
			c0.031-0.045,0.047-0.068,0.078-0.113c-0.001-0.029-0.001-0.043-0.002-0.071c-0.157-0.019-0.236-0.052-0.238-0.1
			c0.054-0.145,0.398-0.22,0.494-0.311c0.064-0.061,0.503-1.204,1.412-2.87c0.963-1.763,1.531-2.657,1.529-2.699
			c-0.002-0.056-0.003-0.083-0.005-0.139c-0.032-0.043-0.048,0.106-0.08,0.063c-0.03,0.013-0.045,0.202-0.075,0.202
			c-0.016,0-0.025,0-0.041,0c0,0-0.001-0.19-0.001-0.203c0.002-0.05,0.143-0.205,0.421-0.294c0.038-0.145,0.15-0.291,0.336-0.352
			c0.014-0.07,0.021-0.126,0.035-0.196c-0.078-0.014-0.117-0.032-0.195-0.046c-0.05,0.02-0.089,0.025-0.116,0.025
			c-0.015-0.028-0.023-0.045-0.038-0.073c0.228-0.067,0.342-0.101,0.57-0.167c0.144-0.022,0.247-0.033,0.31-0.032
			c0.059,0.001,0.11,0.014,0.154,0.04c0.511-0.017,0.767-0.026,1.278-0.041c0.031,0.013,0.046,0.02,0.077,0.033
			C64.211,3.485,64.404,3.467,64.466,3.451z M58.981,9.477c-0.143,0.292-0.213,0.462-0.212,0.509
			c0.047-0.002,0.07-0.003,0.117-0.004c0.116-0.27,0.173-0.438,0.171-0.507C59.027,9.476,59.012,9.476,58.981,9.477z M59.055,9.404
			c0,0.013,0.001,0.02,0.001,0.033c0.055-0.002,0.081-0.026,0.08-0.073c0-0.013-0.001-0.02-0.001-0.033
			C59.08,9.34,59.054,9.364,59.055,9.404z M59.796,10.665c0.001,0.028,0.001,0.042,0.002,0.07c0.03-0.001,0.046-0.002,0.076-0.003
			c0.094,0.011,0.141,0.017,0.236,0.028c0.128-0.038,0.191-0.076,0.19-0.116C60.098,10.653,59.997,10.657,59.796,10.665z
			 M60.336,10.681c0,0.013,0.001,0.019,0.001,0.032c0.077-0.003,0.116-0.005,0.193-0.008c0-0.013-0.001-0.019-0.001-0.032
			C60.452,10.676,60.413,10.678,60.336,10.681z M61.34,3.667c0.047,0.001,0.07,0.001,0.117,0.002
			c0.001,0.028,0.001,0.042,0.002,0.069c-0.047-0.001-0.07-0.001-0.117-0.002C61.341,3.709,61.341,3.695,61.34,3.667z M62.251,5.464
			c0.001,0.028,0.001,0.041,0.002,0.069c-0.022,0.046-0.032,0.081-0.032,0.106c-0.033,0-0.049,0-0.082,0
			c0-0.015-0.001-0.022-0.001-0.037C62.174,5.509,62.212,5.463,62.251,5.464z M62.119,3.818c0,0.015,0.001,0.022,0.001,0.037
			c0.047,0.001,0.07,0.001,0.117,0.002c0.051,0.001,0.076-0.022,0.074-0.068c-0.031-0.015-0.047-0.023-0.078-0.038
			c-0.016,0-0.025,0-0.041-0.001C62.143,3.757,62.118,3.779,62.119,3.818z M63.39,3.741c0,0.013,0.001,0.019,0.001,0.032
			c0.078,0.016,0.117,0.024,0.195,0.041c0.033,0.001,0.049,0.001,0.082,0.002c0.055,0.001,0.105-0.01,0.151-0.034
			c0.044,0.025,0.095,0.039,0.154,0.04c0.031,0.001,0.046,0.001,0.076,0.002c-0.001-0.027-0.001-0.041-0.002-0.068
			c-0.051-0.001-0.077-0.014-0.078-0.038C63.814,3.737,63.621,3.746,63.39,3.741z M63.876,4.405c0,0.013,0.001,0.019,0.001,0.031
			c0.124,0.002,0.187,0.003,0.311,0.005c0-0.013-0.001-0.019-0.001-0.031C64.063,4.408,64,4.407,63.876,4.405z M64.09,3.787
			c0.047,0.001,0.07,0.001,0.117,0.002c-0.001-0.027-0.001-0.041-0.002-0.068c-0.016,0-0.025-0.001-0.041-0.001
			C64.113,3.726,64.089,3.749,64.09,3.787z M64.221,4.202c0,0.015,0.001,0.022,0.001,0.037c0.061,0.001,0.092,0.002,0.153,0.003
			c0-0.015-0.001-0.022-0.001-0.037C64.313,4.204,64.282,4.203,64.221,4.202z M64.281,3.723c-0.016,0.027-0.023,0.04-0.039,0.067
			c0.016,0,0.025,0.001,0.041,0.001c0.14-0.018,0.255-0.026,0.345-0.024c0-0.015-0.001-0.022-0.001-0.036
			C64.489,3.728,64.42,3.726,64.281,3.723z M64.421,4.377c0.001,0.027,0.001,0.041,0.002,0.068c0.092,0.002,0.137,0.002,0.229,0.004
			c-0.002-0.045-0.028-0.068-0.079-0.069C64.512,4.379,64.482,4.379,64.421,4.377z M64.878,4.183c0,0.012,0.001,0.019,0.001,0.031
			c0.108,0.002,0.162,0.003,0.27,0.005c0-0.012-0.001-0.019-0.001-0.031C65.04,4.186,64.986,4.185,64.878,4.183z M65.501,4.397
			c0,0.014,0.001,0.022,0.001,0.036c0.063,0.001,0.095,0.002,0.159,0.003c0-0.014-0.001-0.022-0.001-0.036
			C65.596,4.399,65.564,4.398,65.501,4.397z M66.427,4.385c0.001,0.017,0.041,0.05,0.121,0.1c0.171-0.023,0.256-0.035,0.426-0.057
			c0.102,0.019,0.154,0.043,0.155,0.07c0.097-0.018,0.212-0.026,0.345-0.023c0-0.014-0.001-0.021-0.001-0.036
			c-0.108-0.015-0.163-0.022-0.271-0.037c-0.216,0.007-0.323,0.011-0.539,0.019C66.569,4.406,66.522,4.399,66.427,4.385z"/>
		<path style="fill:#FFFFFF;" d="M62.945,7.331c0.071-0.001,0.107-0.001,0.178-0.002c0.001,0.044,0.002,0.066,0.004,0.111
			c-0.091,0.001-0.17,0.02-0.238,0.058c-0.026-0.044-0.039-0.066-0.065-0.11C62.872,7.365,62.896,7.353,62.945,7.331z M81.87,1.614
			c0.069,0.034,0.15,0.054,0.241,0.061c0.145-0.005,0.217-0.007,0.362-0.012c0.001,0.035,0.002,0.053,0.003,0.089
			c-0.074-0.006-0.111-0.009-0.185-0.015c0.001,0.019,0.001,0.028,0.002,0.047c0.245,0.117,0.371,0.248,0.375,0.394
			c-0.047-0.004-0.07-0.005-0.117-0.009c-0.075-0.041-0.113-0.062-0.188-0.103C82.3,2.061,82.201,2.13,82.069,2.273
			c-0.077-0.006-0.117-0.025-0.118-0.056c-0.735-0.056-1.234,0.046-1.494,0.308c-1.961,0.235-3.988,0.732-6.077,1.534
			c-0.672,0.222-1.496,0.749-2.471,1.609c0.002,0.062,0.003,0.093,0.005,0.155c0.121,0.003,0.181,0.004,0.301,0.006
			c0.036,0.001,0.055,0.018,0.056,0.053c0.049-0.02,0.073-0.029,0.122-0.049c0.025,0.001,0.037,0.001,0.062,0.001
			c0.041,0.001,0.062,0.018,0.063,0.053c0.046-0.02,0.069-0.029,0.115-0.049c0.411,0.009,0.616,0.014,1.027,0.024
			c0.228,0.006,0.548,0.03,0.96,0.075c0.049-0.019,0.073-0.028,0.122-0.047c1.205,0.17,1.808,0.282,1.81,0.337
			c0.082,0.002,0.122-0.028,0.12-0.09c0.121,0.023,0.182,0.035,0.303,0.058c0.071,0.002,0.107,0.003,0.178,0.005
			c0.002,0.069,0.184,0.139,0.547,0.207c0.001,0.037,0.002,0.056,0.003,0.093c-0.121-0.021-0.182-0.031-0.303-0.052
			c-0.12,0.014-0.18,0.021-0.3,0.036c0.001,0.039,0.002,0.059,0.003,0.099c0.242,0.026,0.362,0.039,0.604,0.065
			c0.002,0.057,0.003,0.085,0.005,0.142c-0.168-0.024-0.252-0.036-0.419-0.06c0.002,0.047-0.272,0.263-0.819,0.658
			c0.002,0.066-0.364,0.524-1.096,1.402c-1.614,1.914-2.849,3.382-3.708,4.3c-0.022,0.001-0.033,0.001-0.055,0.002
			c-0.124-0.03-0.187-0.06-0.188-0.091c-0.48,0.058-0.72,0.088-1.199,0.148c-0.003-0.081-0.595-0.462-1.777-1.168
			c-0.506-0.647-0.771-1.372-0.798-2.164c-0.041,0.001-0.065-0.104-0.072-0.314c-0.023-0.685,0.135-1.42,0.474-2.192
			c-0.001-0.019-0.001-0.028-0.002-0.047c-0.123,0-0.184,0.015-0.183,0.047c-0.121-0.019-0.182-0.029-0.303-0.048
			c-1.511,0.083-2.267,0.128-3.777,0.227c-0.026-0.044-0.039-0.066-0.065-0.11c-0.001-0.022-0.001-0.033-0.002-0.055
			c0.32-0.002,0.477-0.056,0.474-0.162c-0.2,0.001-0.302-0.017-0.303-0.053c-0.12,0.023-0.18,0.034-0.299,0.057
			c-0.12,0.001-0.181,0.001-0.301,0.002c-0.205,0.001-0.325-0.013-0.361-0.12c0.955-0.096,1.431-0.237,1.428-0.237
			c-0.142,0-0.214,0-0.356,0c-0.001,0-0.024,0.094-0.067,0.024c0.039-0.061,0.057-0.024,0.054-0.024c-0.096,0-0.144,0-0.24,0
			c-0.001,0-0.001-0.26-0.002-0.282c0.006-0.069,0.044-0.217,0.113-0.217c0.078,0.037,0.141-0.113,0.187-0.113
			c0.034-0.065,0.05-0.388,0.047-0.388c0.074,0,0.111,0,0.185,0c0.001,0,0.001-0.049,0.002-0.027
			c-0.023,0.044-0.035,0.027-0.058,0.027c0.047,0,0.07,0,0.116,0c0.096,0,0.145,0.096,0.241,0.031c0.096,0,0.144,0.098,0.24,0.098
			c0.164,0.001,0.383,0.034,0.656,0.004c0.041,0,0.062,0.041,0.063,0.073c0.12-0.019,0.18-0.016,0.3-0.034
			C66.372,5.987,66.636,5.995,67.165,6c1.525,0.015,2.283-0.09,2.275-0.332c0.899-0.947,1.78-1.607,2.643-2.003
			c1.793-0.961,3.37-1.33,4.28-1.508C77.103,2.012,79.019,1.686,81.87,1.614z M68.081,9.861c0.056,0.433,0.085,0.693,0.088,0.78
			c0.077-0.002,0.115-0.038,0.113-0.109c-0.007-0.208-0.01-0.312-0.017-0.52c-0.028-0.103-0.042-0.155-0.07-0.259
			C68.117,9.765,68.079,9.801,68.081,9.861z M68.147,8.351c0.001,0.043,0.002,0.064,0.004,0.106c0.025,0,0.037,0,0.062,0
			c-0.003-0.083,0.09-0.311,0.278-0.68c-0.026-0.04-0.039-0.06-0.065-0.1c0.039-0.067,0.058-0.12,0.056-0.159
			c-0.025,0-0.037,0-0.062,0C68.329,7.517,68.238,7.794,68.147,8.351z M68.775,10.984c0.002,0.064,0.003,0.095,0.005,0.159
			c0.074-0.002,0.111-0.003,0.185-0.005C68.963,11.087,68.9,11.036,68.775,10.984z M69.443,9.268
			c-0.077,0.974,0.566,1.931,1.588,2.475c1.409-1.732,2.115-2.57,3.527-4.189c-0.002-0.048,0.035-0.114,0.11-0.195
			c-0.001-0.018-0.001-0.027-0.001-0.045c-0.513-0.052-0.795-0.089-0.845-0.113c-0.041-0.001-0.061,0.016-0.06,0.05
			c-0.54-0.041-0.939-0.062-1.199-0.065c-0.723-0.008-1.084-0.011-1.807-0.016C70.153,7.165,69.544,7.998,69.443,9.268z
			 M70.479,11.602c0.001,0.042,0.002,0.063,0.003,0.105c0.082,0.152,0.174,0.243,0.255,0.247c0.07,0.004,0.115-0.038,0.113-0.108
			c-0.001-0.039-0.002-0.059-0.003-0.098C70.792,11.75,70.669,11.701,70.479,11.602z M71.891,12.275
			c0.022-0.001,0.033-0.001,0.055-0.002c0.178-0.155,0.389-0.431,0.636-0.826c-0.025,0.001-0.037,0.001-0.062,0.002
			C72.097,11.878,71.887,12.156,71.891,12.275z M74.605,8.811c-0.893,1-1.528,1.829-1.907,2.37c0.001,0.021,0.001,0.062,0.002,0.083
			c0.022-0.001,0.033,0.015,0.055,0.015c1.022-1.21,1.658-2.02,1.907-2.367c-0.001-0.018-0.001-0.1-0.002-0.1
			C74.638,8.811,74.627,8.811,74.605,8.811z M73.2,10.086c0.001,0.018,0.001,0.027,0.002,0.045c0.022,0,0.033,0,0.055-0.001
			c-0.003-0.076,0.174-0.26,0.529-0.549c0.651-0.848,0.976-1.301,0.973-1.383C74.434,8.469,73.914,9.089,73.2,10.086z M75.74,7.086
			c0.096,0.002,0.144,0.003,0.24,0.004c-0.001-0.04-0.002-0.06-0.003-0.1c-0.047-0.001-0.07-0.001-0.116-0.002
			C75.778,6.998,75.738,7.03,75.74,7.086z M79.832,1.825c0.001,0.019,0.001,0.029,0.002,0.048c0.096,0.007,0.144,0.011,0.24,0.018
			c0.076-0.026,0.137-0.038,0.183-0.034c-0.001-0.038-0.002-0.058-0.003-0.096C80.16,1.818,80.019,1.839,79.832,1.825z
			 M80.309,1.765c0.001,0.038,0.002,0.057,0.003,0.096c0.072-0.026,0.154-0.036,0.245-0.029c-0.001-0.019-0.001-0.029-0.002-0.048
			C80.457,1.777,80.408,1.773,80.309,1.765z M80.671,1.745c0.001,0.019,0.001,0.029,0.002,0.048
			c0.145,0.011,0.218,0.017,0.363,0.028c0.145-0.008,0.217-0.012,0.362-0.019c-0.001-0.017-0.001-0.025-0.001-0.042
			c-0.025-0.002-0.037-0.003-0.062-0.005C81.116,1.766,80.895,1.763,80.671,1.745z"/>
		<path style="fill:#FFFFFF;" d="M80.407,3.845c0.031,0.002,0.046,0.003,0.076,0.004c-0.01,0.109-0.016,0.163-0.026,0.272
			c0.031,0.002-0.171,0.003-0.141,0.004c0.107-0.103,0.05-0.155,0.05-0.257c0,0.011,0,0.016,0,0.027c0,0.388-0.063,0.836-0.37,1.349
			c0,0.013,0.109,0.019,0.11,0.032c0.016,0.001,0.079,0.001,0.095,0.002c0.282-0.569,0.471-0.854,0.514-0.864
			c0.063,0.003,0.109,0.005,0.172,0.008c0,0.013,0.007,0.019,0.008,0.032c-0.05,0.127-0.071,0.217-0.07,0.268
			c0.017,0.026,0.028,0.039,0.045,0.066c-0.948,1.87-1.42,2.829-2.365,4.791c-0.195,0.477-0.461,0.823-0.797,1.038
			c0.003,0.1-0.111,0.176-0.344,0.229c0.001,0.028-0.037,0.06-0.114,0.095c-0.033,0-0.049,0.001-0.082,0.001
			c-0.004-0.116,0.045-0.244,0.146-0.382c-0.001-0.038-0.002-0.056-0.003-0.094c-0.001-0.044-0.028,0.029-0.078,0.029
			c-0.078,0.123-0.117,0.316-0.116,0.316c-0.03,0-0.046,0-0.076,0c0.213-1,0.409-1.313,0.586-1.518
			c0.677-1.599,1.567-3.398,2.669-5.257C80.353,4.039,80.39,3.944,80.407,3.845z M77.555,10.59c0,0.011,0.001,0.017,0.001,0.028
			c0.014,0,0.021,0,0.035,0c-0.001-0.022,0.063-0.105,0.191-0.25c-0.033,0-0.049,0-0.082,0.001
			C77.599,10.401,77.551,10.475,77.555,10.59z M78.778,8.268c-0.051,0.11-0.076,0.173-0.076,0.189c0.035,0,0.086-0.062,0.152-0.188
			C78.824,8.269,78.809,8.269,78.778,8.268z"/>
		<path style="fill:#FFFFFF;" d="M82.733,4.184c0.014,0.001,0.021,0.001,0.035,0.002c-0.013,0.021-0.02,0.031-0.033,0.051
			c0.001,0.045,0.002,0.067,0.004,0.112c0.308-0.024,0.461-0.069,0.458-0.137c0.087,0.016,0.131,0.024,0.218,0.04
			c0.36,0.004,0.692,0.016,0.997,0.036c0.014,0.001,0.021,0.001,0.035,0.002c0.47,0.03,1.036,0.263,1.698,0.689
			c0.135,0.172,0.224,0.326,0.267,0.46c0.004,0.105,0.005,0.158,0.009,0.263c-0.066,0.358-0.188,0.624-0.366,0.798
			c-0.099,0.065-0.331,0.273-0.694,0.63C85.348,7.13,85.341,7.13,85.327,7.13c-0.001-0.021-0.001-0.031-0.002-0.052
			c0.041-0.04,0.061-0.06,0.102-0.1c-0.028-0.001-0.042-0.002-0.07-0.003c-0.819,0.499-1.757,0.882-2.815,1.147
			c-0.264,0.048-0.525,0.069-0.783,0.063c0.35,0.311,0.983,0.725,1.899,1.232c0.095,0.034,0.574,0.341,1.632,0.847
			c0.873,0.418,2.077,0.859,3.077,1.332c0,0.01,0,0.216,0,0.216s0.128,0,0.069,0c-0.236,0-0.355-0.058-0.356-0.081
			c-0.03,0.012-0.045,0.081-0.075,0.081c-0.028,0-0.042,0-0.07,0c-0.023,0-0.035-0.157-0.036-0.177
			c-0.089,0.017-0.157,0.004-0.205,0.11c0.142,0.034,0.213,0.032,0.214,0.066c-0.057,0.037-0.214,0.037-0.249,0.037
			c-0.073-0.012-0.293-0.036-0.293-0.048c0,0.012,0,0.018,0,0.03c0,0.034,0.149-0.021,0.224-0.021
			c0.001,0.031,0.112,0.004,0.113,0.004c-0.014,0-0.021,0-0.035,0c-0.055,0-0.597-0.149-1.628-0.607
			c-0.732-0.273-1.626-0.655-2.685-1.233c-0.344-0.124-0.985-0.463-1.923-1.07C81.387,8.9,81.365,8.909,81.32,8.908
			c-0.131,0.164-0.296,0.596-0.494,1.224c-0.042,0.149-0.273,0.679-0.694,0.679c-0.028,0-0.042,0-0.07,0
			c-0.029,0,0.303-0.116,0.303-0.149c0-0.011,0-0.017,0-0.028c0-0.046,0-0.13,0-0.253c0-0.011,0,0.429,0,0.429s-0.302,0-0.316,0
			c-0.006,0-0.146,0-0.419,0c-0.014,0-0.021,0-0.035,0c-0.001,0-0.001-0.137-0.002-0.161c0.767-1.946,1.308-3.228,1.621-3.804
			c0.537-0.994,0.804-1.577,0.799-1.724c-0.129-0.006-0.411,0.094-0.844,0.331c-0.028-0.001-0.042-0.008-0.07-0.009
			c0.013-0.021,0.02-0.035,0.033-0.056c-0.001-0.022-0.001-0.034-0.002-0.056c-0.133-0.006-0.425,0.145-0.875,0.462
			c-0.014-0.001-0.021-0.001-0.035-0.002c0-0.013-0.001-0.019-0.001-0.032c0.18-0.159,0.085-0.238,0.265-0.396
			c0.027-0.032-0.117-0.047-0.117-0.079c0-0.011,0-0.016,0-0.027c0-0.001,0.142-0.002,0.114-0.003
			c-0.168,0.103-0.159,0.155-0.327,0.26c-0.047-0.002-0.025-0.021-0.026-0.058c0.433-0.368,1.038-0.742,1.634-0.888
			c0.524-0.128,0.895-0.204,0.89-0.362C82.679,4.198,82.705,4.193,82.733,4.184z M81.751,7.936c0.016,0,0.025,0.001,0.041,0.001
			c0.254-0.037,0.381-0.056,0.636-0.092c-0.015-0.022-0.022-0.033-0.037-0.055C81.962,7.821,81.748,7.87,81.751,7.936z
			 M81.888,7.665c0,0.011,0.001,0.016,0.001,0.027c0.028,0.001,0.042,0.001,0.07,0.002c0.046-0.017,0.081-0.025,0.105-0.024
			c0,0.011,0.001,0.016,0.001,0.027c0.576-0.063,0.919-0.142,1.029-0.239c-0.014,0-0.021-0.001-0.035-0.001
			C82.538,7.535,82.148,7.605,81.888,7.665z M81.919,7.811c0.014,0,0.021,0,0.035,0c0.424,0,0.637-0.243,0.64-0.287
			C82.565,7.49,82.55,7.393,82.55,7.372c0.903-0.208,1.504-0.452,1.801-0.671c0.031,0.001,0.429-0.162,0.767-0.449
			c0.014,0.001,0.248-0.017,0.248-0.016c0,0.011,0,0.016,0,0.026c0,0.056-0.279,0.1-0.278,0.133
			c0.014,0.001-0.085,0.001-0.071,0.002c0.303-0.164,0.398-0.351,0.391-0.564c-0.002-0.065-0.03-0.097-0.032-0.161
			c-0.07-0.004-0.119-0.023-0.121-0.058c0.121-0.011,0.173-0.051,0.171-0.121c-0.003-0.093-0.25-0.194-0.728-0.306
			c-0.385-0.09-0.805-0.15-1.255-0.175c-0.231-0.013-0.448,0.431-0.65,1.055C82.7,6.14,82.409,6.811,81.919,7.811z M82.269,5.218
			c0,0.013,0.001,0.019,0.001,0.031c0.035,0.002,0.069-0.025,0.103-0.08c0-0.011-0.001-0.016-0.001-0.027
			C82.337,5.141,82.303,5.166,82.269,5.218z M82.322,5.74c0.014,0.001,0.021,0.001,0.035,0.002c0.07-0.015,0.103-0.067,0.1-0.157
			C82.418,5.583,82.373,5.635,82.322,5.74z M83.238,9.655c0.001,0.021,0.001,0.032,0.002,0.053c0.375,0.221,0.605,0.33,0.691,0.331
			c-0.099-0.048-0.15-0.094-0.151-0.139C83.563,9.802,83.454,9.753,83.238,9.655z M84.289,10.254
			c0.03,0.074,0.103,0.111,0.221,0.112c0.014,0,0.021,0,0.035,0c0-0.011-0.001-0.016-0.001-0.026c-0.055,0-0.126-0.029-0.214-0.085
			C84.314,10.254,84.305,10.254,84.289,10.254z M85.682,6.006c0.001,0.023,0.001,0.034,0.002,0.057
			c0.035,0.002,0.069-0.024,0.103-0.077c0-0.01-0.001-0.016-0.001-0.026c-0.014-0.001-0.021-0.001-0.035-0.002
			C85.704,5.96,85.681,5.977,85.682,6.006z M86.01,5.131c0,0.01,0.001,0.016,0.001,0.026c0.009,0.035,0.033,0.054,0.072,0.056
			c0-0.01-0.001-0.016-0.001-0.026C86.081,5.153,86.057,5.134,86.01,5.131z M86.641,11.226c0.192,0.124,0.481,0.247,0.867,0.367
			c0.013-0.021,0.02-0.031,0.033-0.051c-0.297-0.132-0.574-0.237-0.831-0.316C86.683,11.226,86.669,11.226,86.641,11.226z
			 M88.617,11.646c0.042,0,0.063,0,0.105,0c0.047,0.006,0.071,0.023,0.072,0.051c-0.047,0-0.069,0.025-0.068,0.076
			c-0.028,0-0.042,0-0.07,0c0.013-0.02,0.02-0.03,0.033-0.051c0-0.01-0.001-0.015-0.001-0.025c-0.028,0-0.042,0-0.07,0
			C88.618,11.676,88.618,11.666,88.617,11.646z"/>
		<path style="fill:#FFFFFF;" d="M89.258,4.357c-0.019,0.138-0.028,0.224-0.027,0.258c0.025-0.008,0.038-0.012,0.064-0.021
			c0.047,0.009,0.071,0.026,0.072,0.051c-0.043,0.111-0.064,0.173-0.064,0.184c-0.026-0.002-0.039-0.003-0.065-0.005
			c-0.016-0.067-0.024-0.1-0.041-0.166c-0.012-0.001,0.175-0.001,0.163-0.002c-0.129,0.117,0.004,0.223,0.004,0.318
			c0,0.008,0,0.013,0,0.021c0,0.002-0.135,0.012-0.092,0.032c0.023-0.026-0.063-0.056-0.064-0.09
			c0.026,0.002-0.009,0.003,0.016,0.004c-0.097,0.248-0.485,0.88-1.113,1.928c-0.331,0.595-0.594,0.996-0.763,1.192
			c-0.061,0.16-0.142,0.255-0.231,0.284c-0.001-0.017-0.014-0.026-0.033-0.027c0.003,0.086,0.185,0.164,0.078,0.236
			c-0.022,0.028,0.202,0.061,0.202,0.098c0,0.009,0,0.013,0,0.022c0,0.001-0.196,0.001-0.17,0.002
			c0.001,0.034-0.137,0.051-0.18,0.05c-0.026-0.011-0.098-0.017-0.124-0.028c0.002,0.049-0.132,0.215-0.341,0.501
			c0.001,0.029-0.139,0.044-0.138,0.073c0.038,0.001-0.047,0.001-0.047,0.002c0,0.01,0,0.016,0,0.026
			c0-0.001,0.052,0.014-0.001,0.045c0.015,0.019,0.085,0.029,0.1,0.048c0.001,0.019,0.032,0.029,0.033,0.048
			c-0.028-0.001-0.026-0.001-0.055-0.001c-0.001-0.019,0.007-0.029,0.006-0.048c-0.063,0.068-0.091,0.102-0.154,0.17
			c-0.019,0.026-0.025,0.057-0.024,0.095c0.001,0.019,0.002,0.029,0.003,0.048c0.026,0,0.039,0.001,0.065,0.001
			c0.001,0.021,0.001,0.024,0.002,0.045c0.001,0.023-0.031,0.06-0.097,0.06c-0.014,0-0.021,0-0.035,0c0.013,0,0.02,0,0.034,0
			c-0.014,0-0.021,0-0.035,0c-0.066,0-0.119,0.055-0.157,0.202c0.001,0.029,0.102,0.054,0.302,0.091c0.02,0,0.029-0.011,0.029-0.025
			c0.094,0.01,0.141,0.013,0.235,0.023c0.055,0.001,0.371-0.023,0.89-0.01c0.295,0.008,0.503,0.029,0.593,0.03
			c0.025-0.008,0.038-0.012,0.064-0.02c0.04,0.015,0.085,0.023,0.135,0.023c0.052,0.001,0.077,0.001,0.129,0.002
			c0.082,0.001,0.181-0.004,0.298-0.016c0.023,0,0.035,0.008,0.036,0.022c0.131-0.006,0.196-0.009,0.327-0.015
			c0.171,0.003,0.257,0.005,0.428,0.008c0.023,0,0.035,0.008,0.036,0.022c0.039-0.013,0.07-0.02,0.093-0.019
			c0.496,0.01,0.958,0.004,1.387-0.016c0.02,0,0.03,0.008,0.03,0.021c0.554-0.016,0.832-0.023,1.386-0.036
			c0.026,0.01,0.039,0.016,0.065,0.026c0.039-0.015,0.081-0.022,0.128-0.021c0.023,0.001,0.035,0.009,0.036,0.025
			c0.042-0.015,0.09-0.022,0.113-0.022c0.074,0.002,0.576,0,0.576-0.005c0,0.008,0,0.012,0,0.02c0-0.021,1.04-0.046,2.19-0.068
			c0.001,0.019-0.006,0.028-0.005,0.047c-0.047-0.002-0.073,0.02-0.072,0.065c-0.04-0.001,0.015-0.002-0.025-0.003
			c-0.065,0.006-0.088,0.009-0.088,0.015c0-0.008,0-0.012,0-0.02c-1,0.037-1.228,0.053-1.556,0.044
			c-0.026-0.001-0.077-0.001-0.103-0.002c-0.051-0.001-0.115,0.005-0.153,0.02c-0.02-0.001-0.039-0.009-0.04-0.025
			c-0.323,0.021-0.888-0.199-1.684-0.201c0.001,0.018-0.004-0.182-0.003-0.182c0.012,0,0.018,0,0.029,0
			c0.621,0,1.226,0.242,1.815,0.228c0.001,0.018,0.001,0.14,0.001,0.158c-0.09-0.002-0.222,0.067-0.397,0.095
			c-0.114-0.019-0.179,0-0.194-0.001c-0.133,0.006-0.2,0.024-0.333,0.03c0.001,0.03,0.035,0.053,0.101,0.054
			c0.023,0.001,0.056-0.003,0.099-0.018c0.023,0.001-0.041,0.011,0.002,0.029c0.41-0.006,1.416-0.023,1.416-0.051
			c0-0.008,0-0.012,0-0.02c0,0.006,0,0.009-0.065,0.015c-0.051-0.001-0.047-0.009-0.086-0.024c-0.079,0.006-0.095,0.009-0.174,0.015
			c-0.131-0.004-0.185-0.005-0.316-0.009c-0.001-0.018,0.005-0.027,0.005-0.044c0.105,0.003,0.181,0.004,0.287,0.007
			c0.131-0.006,0.35-0.009,0.35-0.015c0,0.01,0,0.014,0,0.024c0-0.009,0.022-0.013,0.05-0.022c0.02,0.001,0.02,0.009,0.02,0.025
			c0.065-0.008,0.093-0.012,0.158-0.019c0.094,0.003,0.138,0.004,0.232,0.007c0.02,0.001,0.028,0.009,0.029,0.025
			c0.101-0.026,0.244-0.036,0.431-0.031c0.066,0.002,0.098,0.003,0.164,0.005c0.043,0.001,0.294,0.024,0.295,0.069
			c0.157-0.005-0.38-0.007,0.62-0.012c0,0.009,0,0.014,0,0.024c0-0.038,0.234-0.052,0.496-0.043
			c0.015,0.018-0.092,0.026-0.078,0.044c0.001,0.029-0.077,0.042-0.12,0.041c-0.028-0.001-0.071-0.001-0.099-0.002
			c-0.047-0.002-0.104-0.009-0.144-0.024c-0.213,0.038-0.439,0.055-0.509,0.053c-0.185-0.006-0.546-0.008-0.546-0.014
			c0,0.008,0,0.012,0,0.02c0,0.029,0.108,0.044,0.143,0.045c0.402-0.001,0.748-0.013,0.962-0.035
			c0.039,0.014,0.102,0.022,0.149,0.024c-0.102,0.101-0.418,0.15-0.554,0.146c-2.541,0.072-3.699,0.126-4.699,0.118
			c0-0.01,0-0.015,0-0.025c0,0.009,0.164,0.014,0.136,0.023c-0.145-0.003,0.059-0.004-0.086-0.006
			c-0.131,0.006-0.05,0.009-0.05,0.015c0,0.01,0,0.015,0,0.025c0,0.006,0.399,0.01,0.781,0.016c0.113,0.002,0.192-0.003,0.41-0.015
			c0.012,0.02,0.115,0.03,0.127,0.049c-0.171,0.021-1.318,0.042-1.318,0.066c0-0.008,0-0.012,0-0.021c0,0-0.169,0.006-0.169,0.02
			c-0.406,0.01-0.772,0.015-0.96,0.012c-0.145-0.002-0.253-0.003-0.398-0.005c-0.079,0.007-0.137,0.011-0.216,0.019
			c-0.02,0-0.038-0.007-0.039-0.021c-0.093,0.007-0.145,0.011-0.238,0.018c-0.342-0.004-0.515-0.006-0.857-0.009
			c-0.023,0-0.036-0.007-0.037-0.022c-0.025,0.008-0.039,0.012-0.064,0.021c-0.105-0.001-0.158-0.002-0.264-0.002
			c-0.043,0-0.065-0.016-0.066-0.047c0.02,0,0.029-0.007,0.029-0.021c0.094,0.009,0.141,0.014,0.235,0.024
			c0.078,0.001,0.175-0.005,0.292-0.018c0.028,0.009,0.043,0.013,0.071,0.022c0.085-0.013,0.161-0.019,0.228-0.019
			c-0.001-0.034-0.023-0.051-0.066-0.051c-0.038,0.016-0.083,0.024-0.134,0.024c-0.001-0.019,0.245-0.028,0.244-0.047
			c0.066,0.001-0.59,0.001,0.41,0.002c0-0.01,0-0.015,0-0.025c-1-0.034-1-0.053-1-0.056c0-0.01,0-0.015,0-0.026
			c0,0.01-0.181,0.015-0.206,0.025c-0.145-0.002-0.289-0.002-0.435-0.004c-0.285-0.003-0.618-0.014-0.927-0.034
			c-0.17,0.017-0.274,0.026-0.444,0.044c-0.474-0.035-0.757-0.053-0.831-0.053c-0.073,0.032-0.001,0.047-0.059,0.047
			c-0.084-0.047-0.098-0.071-0.098-0.071c0-0.011,0-0.016,0-0.026c0-0.059-0.087-0.089-0.049-0.148
			c-0.012-0.019-0.09-0.029-0.103-0.048c-0.001-0.044-0.006-0.1,0.058-0.17c-0.028-0.011-0.061-0.016-0.089-0.027
			c-0.052-0.001-0.086,0.24-0.138,0.24c0.002,0.061-0.05-0.611-0.139,0.389c-0.026,0-0.039,0-0.064,0c0.054-1,0.126-1,0.217-1
			c0.014,0,0.021,0,0.035,0c0.066,0,0.101,0,0.104,0c0.026,0,0.039,0,0.064,0c0.043,0,0.064,0.134,0.063,0.101
			c-0.016-0.119-0.024-0.104-0.039-0.223c0.096-0.054,0.304-0.342,0.624-0.93c0.105-0.122,0.156-0.232,0.151-0.368
			c-0.043-0.001-0.065-0.008-0.066-0.04c0.081-0.024,0.186-0.162,0.314-0.423c0.673-1.003,1.383-2.139,2.13-3.398
			c0.014,0.001,0.021,0.003,0.035,0.004c0.021,0.03,0.031,0.063,0.033,0.1c0.028,0.002,0.042,0.003,0.07,0.005
			c0.095-0.185,0.168-0.274,0.219-0.271c0.015,0.02,0.022,0.029,0.037,0.049c0.001,0.042-0.081,0.194-0.248,0.459
			c0.053,0.032,0.079,0.048,0.132,0.081c0.203-0.118,0.36-0.32,0.472-0.605C89.216,4.354,89.23,4.355,89.258,4.357z M85.21,10.454
			c0,0.009,0,0.013,0.001,0.022c0.009,0.035,0.031,0.053,0.066,0.053c-0.001-0.03-0.001-0.045-0.002-0.074
			C85.248,10.454,85.235,10.454,85.21,10.454z M85.59,9.032c0.014,0,0.021,0,0.035,0.001c0,0.01,0.001,0.016,0.001,0.026
			c0.001,0.032-0.022,0.047-0.069,0.046c-0.012-0.019-0.019-0.029-0.031-0.049C85.552,9.047,85.564,9.042,85.59,9.032z
			 M85.783,10.776c0.066,0.011,0.099,0.016,0.165,0.027c0.422,0.002,0.633,0.004,1.055,0.007c0.001,0.019,0.001,0.028,0.002,0.047
			c-0.502-0.004-0.752-0.005-1.254-0.007c0-0.01-0.001-0.016-0.001-0.026C85.763,10.804,85.769,10.795,85.783,10.776z M86.431,9.492
			c0.026,0.009,0.039,0.014,0.065,0.023c-0.054,0.128-0.107,0.192-0.158,0.192c0-0.009,0-0.013-0.001-0.022
			C86.337,9.664,86.368,9.6,86.431,9.492z M87.131,10.811c0.054,0,0.081,0.001,0.135,0.001c0.001,0.019,0.001,0.028,0.002,0.047
			c-0.054,0-0.081-0.001-0.135-0.001C87.132,10.839,87.132,10.83,87.131,10.811z M87.789,5.78c0.001,0.029,0.001,0.043,0.002,0.072
			c0.014,0.001,0.021,0.001,0.035,0.002c0.059-0.096,0.088-0.158,0.087-0.186C87.887,5.666,87.845,5.704,87.789,5.78z M87.943,5.479
			c0.002,0.066,0.003,0.1,0.006,0.166c0.014,0.001,0.021,0.001,0.035,0.002c-0.001-0.037,0.03-0.083,0.095-0.139
			c-0.002-0.048-0.002-0.071-0.004-0.119c0.074,0.002,0.136-0.089,0.184-0.272c0-0.01-0.001-0.015-0.001-0.025
			c-0.062,0.021-0.134,0.128-0.218,0.321C88.014,5.459,87.982,5.481,87.943,5.479z M88.347,10.749c0.04,0,0.06,0.001,0.1,0.001
			c0.001,0.019,0.001,0.028,0.002,0.047c-0.04,0-0.06-0.001-0.1-0.001C88.348,10.777,88.348,10.768,88.347,10.749z M88.254,4.973
			c0.001,0.029,0.001,0.043,0.002,0.072c0.035,0.002,0.079-0.027,0.132-0.089c-0.014-0.001-0.021-0.001-0.035-0.002
			C88.31,4.968,88.277,4.974,88.254,4.973z M89.194,10.33c-0.185-0.003-0.278-0.005-0.463-0.008c0,0.01,0.001,0.015,0.001,0.025
			c0.145,0.002,0.218,0.003,0.363,0.006c0,0.01,0.001,0.015,0.001,0.025c0.025-0.01,0.038-0.015,0.064-0.024
			c0.342,0.006,0.513,0.009,0.855,0.015c-0.001-0.031-0.023-0.046-0.066-0.047c-0.125-0.002-0.301,0.001-0.527,0.012
			c-0.023,0-0.035-0.008-0.036-0.022C89.31,10.319,89.271,10.323,89.194,10.33z M88.908,10.705c0,0.01,0.001,0.015,0.001,0.025
			c0.171,0.002,0.257,0.003,0.428,0.005c0.023,0,0.035,0.009,0.036,0.026c0.027-0.016,0.103-0.024,0.228-0.022
			c0-0.01-0.001-0.015-0.001-0.025c-0.171-0.002-0.257-0.004-0.428-0.006c-0.051-0.001-0.094-0.008-0.13-0.023
			C89.003,10.699,88.959,10.706,88.908,10.705z M90.049,10.324c0,0.008,0,0.013,0.001,0.021c0.109,0.002,0.24,0.013,0.393,0.032
			c0.042-0.016,0.075-0.023,0.099-0.023c0-0.008,0-0.012-0.001-0.021C90.344,10.33,90.246,10.328,90.049,10.324z M90.641,10.335
			c0,0.008,0,0.012,0.001,0.021c0.054,0.001,0.081,0.002,0.135,0.003c0-0.008,0-0.012-0.001-0.021
			C90.721,10.337,90.694,10.336,90.641,10.335z M90.939,10.341c0,0.008,0,0.012,0.001,0.021c0.08,0.002,0.12,0.002,0.199,0.004
			c-0.001-0.03-0.035-0.046-0.101-0.048C90.996,10.334,90.963,10.342,90.939,10.341z M91.565,10.33c0,0.01,0,0.015,0.001,0.025
			c0.066,0.001,0.098,0.002,0.164,0.004c0-0.01,0-0.015-0.001-0.025C91.664,10.332,91.631,10.331,91.565,10.33z M91.795,10.359
			c0.12,0.003,0.179,0.004,0.299,0.007c-0.015-0.018-0.022-0.027-0.037-0.046c-0.02,0-0.029,0.006-0.029,0.02
			c-0.068-0.01-0.102-0.015-0.171-0.024C91.815,10.317,91.794,10.332,91.795,10.359z M92.534,10.763
			c0.211,0.004,0.316,0.006,0.527,0.011c0.001,0.019,0.001,0.029,0.002,0.049c-0.054-0.001-0.081-0.002-0.135-0.003
			c-0.02,0-0.03-0.009-0.03-0.025c-0.054,0.015-0.163,0.028-0.327,0.038c-0.015-0.018-0.022-0.027-0.037-0.045
			C92.535,10.778,92.534,10.773,92.534,10.763z M95.366,10.694c0,0.008,0,0.012,0,0.02c0,0.061-0.629,0.082-1.769,0.071
			c-0.068,0.008-0.231,0.012-0.231,0.021c0-0.01,0-0.015,0-0.024c0,0.009,0.006,0.014-0.02,0.023
			c-0.066-0.001-0.076-0.002-0.142-0.003c-0.001-0.018,0.028-0.027,0.028-0.045C93.474,10.762,94.366,10.738,95.366,10.694z
			 M95.564,10.701c0.066,0.002,0.098,0.003,0.164,0.004c0.001,0.017,0.001,0.026,0.001,0.043c-0.066-0.002-0.098-0.003-0.164-0.004
			C95.564,10.727,95.564,10.718,95.564,10.701z M97.058,10.261c0.133,0.02,0.2,0.037,0.201,0.05c0.026-0.007,0.038-0.01,0.064-0.017
			c0.014,0,0.021,0.001,0.035,0.001c0.001,0.017,0.001,0.026,0.001,0.043c-0.105-0.004-0.158-0.005-0.264-0.009
			c-0.065,0.006-0.098,0.008-0.163,0.014c-0.015-0.018-0.022-0.026-0.037-0.044c0-0.008,0-0.012-0.001-0.019
			C96.969,10.281,97.024,10.275,97.058,10.261z M97.561,10.41c0.012,0,0.018,0.001,0.029,0.001c0.047,0.004,0.071,0.019,0.072,0.045
			c-0.04-0.001-0.06-0.002-0.1-0.003C97.561,10.436,97.561,10.427,97.561,10.41z"/>
	</g>
</g>
<g>
</g>
<g>
</g>
<g>
</g>
<g>
</g>
<g>
</g>
<g>
</g>
<g>
</g>
<g>
</g>
<g>
</g>
<g>
</g>
<g>
</g>
<g>
</g>
<g>
</g>
<g>
</g>
<g>
</g>
</svg>
